<?xml version="1.0" encoding="utf-8"?>
<!-- Generator: Adobe Illustrator 23.0.2, SVG Export Plug-In . SVG Version: 6.00 Build 0)  -->
<svg version="1.1" id="Lupa" xmlns="http://www.w3.org/2000/svg" xmlns:xlink="http://www.w3.org/1999/xlink" x="0px" y="0px"
	 viewBox="0 0 430 333" style="enable-background:new 0 0 430 333;" xml:space="preserve">
<style type="text/css">
	.st0{fill:#5F6A00;}
	.st1{fill:#909BA0;}
	.st2{fill:#2E4661;}
	.st3{opacity:0.12;fill:#272525;}
	.st4{fill-rule:evenodd;clip-rule:evenodd;fill:#5CA432;}
	.st5{fill-rule:evenodd;clip-rule:evenodd;fill:#672423;}
	.st6{fill-rule:evenodd;clip-rule:evenodd;fill:#5CA432;stroke:#AFCC51;stroke-width:0.2467;stroke-miterlimit:22.9256;}
	.st7{fill-rule:evenodd;clip-rule:evenodd;fill:#75B731;}
	.st8{fill-rule:evenodd;clip-rule:evenodd;fill:#3A925B;}
	.st9{fill-rule:evenodd;clip-rule:evenodd;fill:#935637;}
	.st10{fill-rule:evenodd;clip-rule:evenodd;fill:#AA663E;}
	.st11{fill-rule:evenodd;clip-rule:evenodd;fill:#D4912A;}
	.st12{fill-rule:evenodd;clip-rule:evenodd;fill:#EFE860;}
	.st13{fill-rule:evenodd;clip-rule:evenodd;fill:#00B3D4;}
	.st14{fill-rule:evenodd;clip-rule:evenodd;fill:#F9F6C8;}
	.st15{fill-rule:evenodd;clip-rule:evenodd;fill:#6CC5D4;}
	.st16{fill-rule:evenodd;clip-rule:evenodd;fill:#008FAC;}
	.st17{fill-rule:evenodd;clip-rule:evenodd;fill:#00A6D4;}
	.st18{fill-rule:evenodd;clip-rule:evenodd;fill:#B7AC5C;}
	.st19{fill:#FFFFFF;}
	.st20{fill:#EAEAEA;}
	.st21{fill:#009DCB;}
	.st22{fill:#CCAB6B;}
	.st23{fill:none;stroke:#000000;stroke-miterlimit:10;}
	.st24{font-family:'Arial-BoldMT';}
	.st25{font-size:7.2663px;}
	.st26{font-size:7.2668px;}
	.st27{fill:none;stroke:#4D4D4D;stroke-width:14;stroke-miterlimit:10;}
	.st28{opacity:0.58;fill:#B3D1E2;}
	.st29{opacity:0.22;}
	.st30{opacity:0.31;fill:#FFFFFF;}
	.st31{fill:#A36652;}
	.st32{fill:#6A8678;}
</style>
<g>
	<g>
		<g>
			<g>
				<path class="st0" d="M147.46,180.37l-25.54,19.52c-1.43,1.09-1.82,2.97-0.89,4.19l30.88,40.39c0.94,1.22,2.85,1.33,4.28,0.24
					l69.37-53.04c1.43-1.09,1.82-2.97,0.89-4.19l-30.88-40.39c-0.94-1.23-2.85-1.33-4.28-0.24l-25.53,19.52 M142.42,193.86
					c4.23-3.23,10.27-2.42,13.5,1.8c3.23,4.23,2.42,10.27-1.8,13.5c-4.23,3.23-10.27,2.42-13.5-1.8
					C137.39,203.13,138.19,197.09,142.42,193.86 M157.56,210.5l0.78,1.02c0.18,0.23,0.31,0.46,0.3,0.5
					c-0.02,0.04-0.12,0.29-0.23,0.57l-0.37,0.93c-0.11,0.27-0.44,0.53-0.73,0.56l-1,0.12c-0.29,0.04-0.57,0.07-0.61,0.07
					c-0.04,0.01-0.22-0.18-0.4-0.42l-0.78-1.02c-0.18-0.23-0.13-0.57,0.1-0.75l2.2-1.68C157.04,210.22,157.38,210.26,157.56,210.5
					 M180.63,216.75l-26.13,19.98l-5.94-7.76c-3.43-4.49-2.74-10.83,1.47-14.48l8.7,4.77l-2.05-3.68c-0.14-0.26-0.02-0.5,0.27-0.53
					l1-0.12c0.29-0.03,0.62-0.29,0.73-0.56l0.37-0.93c0.11-0.27,0.37-0.33,0.58-0.12l3.02,2.95l-2.33-9.65
					c4.63-3.1,10.93-2.11,14.36,2.38C174.69,208.98,180.63,216.75,180.63,216.75z M199.18,193.26l-17.06,13.04l-2.65-3.47
					l17.06-13.04L199.18,193.26z M206.52,175.13l-30.44,23.27l-2.65-3.47l30.44-23.27L206.52,175.13L206.52,175.13z M200.49,167.24
					l-30.44,23.27l-2.65-3.47l30.44-23.27L200.49,167.24L200.49,167.24z"/>
				<g>
					<g>
						<polygon class="st1" points="379.29,264.42 355.83,302 219.12,215.68 242.58,178.1 						"/>
						<path class="st2" d="M425.15,318.87l-0.27,0.43c-7.4,11.86-20.61,16.97-29.5,11.41l-102.2-62.73l26.86-45.17l102.41,64.53
							C431.34,292.9,432.55,307.01,425.15,318.87z"/>
					</g>
					<polygon class="st3" points="232.01,223.73 238.45,228.43 296.79,213.28 248.18,182.27 					"/>
				</g>
				<g>
					<path class="st4" d="M75.62,48.34l145.93,35.79c0.86,0.21,1.39,1.08,1.18,1.94l-3.57,14.56c-0.21,0.86-1.08,1.39-1.94,1.18
						L71.28,66.02c-0.85-0.21-1.38-1.09-1.17-1.94l3.57-14.56C73.89,48.66,74.76,48.14,75.62,48.34z"/>
					<path class="st5" d="M72.15,58.22l76.92,9.25l-7.98,66.42l-77.16-9.28c-3.36-0.41-5.78-3.48-5.37-6.84l6.49-53.96
						C65.45,60.32,68.65,57.8,72.15,58.22z"/>
					<path class="st5" d="M225.75,76.69l-76.92-9.25l-7.98,66.42l77.16,9.27c3.36,0.4,6.44-2.01,6.84-5.37l6.49-53.96
						C231.76,80.31,229.24,77.1,225.75,76.69z"/>
					<path class="st6" d="M78.17,51.52l131.84,32.33c0.77,0.19,1.25,0.98,1.06,1.75l-3.22,13.16c-0.19,0.78-0.98,1.25-1.75,1.06
						L74.25,67.49c-0.77-0.19-1.25-0.98-1.06-1.75l3.23-13.15C76.61,51.81,77.4,51.34,78.17,51.52z"/>
					<path class="st7" d="M71.32,63.65l150.37,6.47c0.81,0.04,1.45,0.73,1.41,1.54l-0.65,15.23c-0.04,0.81-0.73,1.45-1.54,1.41
						L70.54,81.84c-0.81-0.04-1.45-0.73-1.41-1.54l0.65-15.24C69.82,64.26,70.51,63.62,71.32,63.65z"/>
					<path class="st8" d="M71.65,57.17l155.3,18.67c0.67,0.08,1.15,0.7,1.07,1.37l-1.88,15.63c-0.08,0.67-0.7,1.15-1.37,1.07
						L69.48,75.24c-0.67-0.08-1.15-0.7-1.07-1.36l1.88-15.63C70.37,57.57,70.98,57.09,71.65,57.17z"/>
					<path class="st9" d="M71.91,60.18l76.92,9.24l-7.98,66.42l-77.16-9.27c-3.36-0.4-5.78-3.48-5.37-6.84l6.49-53.96
						C65.22,62.27,68.42,59.76,71.91,60.18z"/>
					<path class="st10" d="M225.52,78.64l-76.92-9.24l-7.98,66.42l77.16,9.27c3.36,0.4,6.44-2.02,6.84-5.37l6.49-53.96
						C231.52,82.26,229.01,79.06,225.52,78.64z"/>
					<path class="st11" d="M163.96,79.79l54.68,6.57c2.14,0.26,3.68,2.22,3.42,4.36l-0.81,6.78l-61.68-7.41l0.91-7.56
						C160.68,80.81,162.24,79.58,163.96,79.79z"/>
					<path class="st12" d="M159.45,82.41l54.68,6.57c2.14,0.26,3.68,2.22,3.42,4.36l-0.82,6.78l-61.68-7.41l0.91-7.56
						C156.17,83.43,157.73,82.2,159.45,82.41z"/>
					<path class="st13" d="M157.52,86.71l61.04,7.34c2.39,0.29,4.11,2.48,3.82,4.87l-0.91,7.57l-68.86-8.28l1.01-8.43
						C153.86,87.85,155.61,86.48,157.52,86.71z"/>
					<path class="st14" d="M158.33,107.94l52.11,6.26c2.39,0.29,4.11,2.48,3.82,4.87l-0.91,7.57l-59.93-7.2l1.02-8.44
						C154.67,109.09,156.42,107.72,158.33,107.94z"/>
					<path class="st5" d="M183.63,122.57c-12.41-1.62-30.42-3.78-33.59-2.91c22.56,2.71,45.12,5.42,67.68,8.13
						C221.24,127.59,203.75,124.73,183.63,122.57z"/>
					<path class="st5" d="M72.46,85.76l63.19,7.59c1.76,0.22,3.03,1.83,2.81,3.59l-3.42,28.52c-0.21,1.76-1.83,3.03-3.59,2.82
						l-63.19-7.6c-1.76-0.21-3.02-1.82-2.81-3.58l3.43-28.52C69.09,86.81,70.7,85.54,72.46,85.76z"/>
					<path class="st15" d="M73.6,87.38l60.56,7.28c1.61,0.19,2.77,1.67,2.58,3.28l-3.14,26.13c-0.19,1.61-1.67,2.77-3.28,2.58
						l-60.56-7.28c-1.61-0.19-2.77-1.67-2.58-3.28l3.14-26.13C70.51,88.35,71.99,87.19,73.6,87.38z"/>
					<path class="st16" d="M162.17,91.46c2.76,0.33,4.73,2.84,4.4,5.61c-0.12,1.05-1.03,2.72-2,2.62l-6.93-0.74
						c-1.01-0.11-1.21-2-1.08-3.08C156.89,93.1,159.4,91.13,162.17,91.46z"/>
					<path class="st5" d="M186.55,101.77c-14.09-1.82-34.52-4.27-38.1-3.45c25.6,3.08,51.2,6.16,76.8,9.23
						C229.24,107.41,209.37,104.27,186.55,101.77z"/>
					<polygon class="st16" points="168.6,95.08 214.63,100.61 214.87,98.66 168.84,93.13 					"/>
					<polygon class="st16" points="168.4,98.77 189.41,101.3 189.64,99.35 168.64,96.82 					"/>
					<path class="st5" d="M105.53,79.41c-13.65-1.84-33.48-4.23-37.04-2.61c24.83,2.99,49.66,5.97,74.49,8.95
						C146.9,85.21,127.69,81.67,105.53,79.41z"/>
					<path class="st5" d="M106.19,71.81c-13.65-1.84-33.47-4.23-37.05-2.6c24.83,2.98,49.66,5.97,74.49,8.95
						C147.57,77.61,128.36,74.07,106.19,71.81z"/>
					<path class="st17" d="M73.6,89.48l60.19,7.23c0.54,0.07,0.92,0.56,0.86,1.09l-3.04,25.28c-0.07,0.54-0.56,0.92-1.1,0.86
						l-60.19-7.24c-0.54-0.06-0.92-0.55-0.86-1.09l3.04-25.27C72.57,89.81,73.06,89.42,73.6,89.48z"/>
					<polygon class="st16" points="77.56,99.25 127.68,105.28 128,102.59 77.89,96.56 					"/>
					<polygon class="st16" points="76.76,104.85 126.89,110.88 127.21,108.19 77.09,102.17 					"/>
					<polygon class="st16" points="76.33,110.5 103.62,113.78 103.95,111.09 76.66,107.81 					"/>
					<path class="st18" d="M137.38,92.98l-7.36-0.88l8.7,10.18l0.79-6.59C139.67,94.36,138.71,93.14,137.38,92.98z"/>
					<path class="st18" d="M132.33,128.83l-7.28-0.87l10.74-7.75l-0.78,6.52C134.85,128.04,133.65,128.99,132.33,128.83z"/>
					<path class="st18" d="M71.49,85.19l7.36,0.89l-10.86,7.83l0.79-6.59C68.94,85.99,70.16,85.03,71.49,85.19z"/>
					<path class="st18" d="M67.2,120.87l7.28,0.87l-8.6-10.07l-0.78,6.51C64.93,119.51,65.88,120.71,67.2,120.87z"/>
				</g>
				<g>
					<g id="Layer_1_2_">
						<g>
							<path d="M89.87,240.85l-72.95-18.11c-2.37-0.59-3.72-3.33-3.02-6.15l27.78-111.87c0.7-2.82,3.17-4.61,5.54-4.02l72.95,18.11
								c2.37,0.59,3.72,3.33,3.02,6.15L95.42,236.82C94.72,239.64,92.22,241.43,89.87,240.85z"/>
							<path class="st19" d="M90.51,238.3l-72.95-18.11c-2.37-0.59-3.72-3.33-3.02-6.15l27.78-111.87c0.7-2.82,3.17-4.61,5.54-4.02
								l72.95,18.11c2.37,0.59,3.72,3.33,3.02,6.15L96.05,234.28C95.35,237.1,92.86,238.89,90.51,238.3z"/>
							<rect x="6.47" y="210.1" transform="matrix(0.241 -0.9705 0.9705 0.241 -192.8306 177.3252)" width="20.96" height="3.68"/>
							<g>
								<path class="st20" d="M109.31,132.74L58.03,234.87c-1.29,2.57-0.62,5.68,1.47,6.97l35.52,21.89
									c2.11,1.3,4.84,0.26,6.13-2.29l51.29-102.16c1.29-2.57,0.62-5.68-1.47-6.97l-35.52-21.89
									C113.35,129.14,110.6,130.16,109.31,132.74z"/>
								<path class="st19" d="M152.27,159.63l-18.86,37.57l-43.15-26.55l18.86-37.57c1.29-2.57,4.5-3.75,6.6-2.46l35.52,21.89
									C153.36,153.78,153.56,157.08,152.27,159.63z"/>
								<polygon class="st19" points="74.04,241.25 101.87,185.83 106.25,188.53 78.42,243.95 								"/>
								<polygon class="st19" points="83.86,247.29 92.4,230.3 99.04,234.39 90.51,251.39 								"/>
								<polygon class="st19" points="95.51,224.13 111.69,191.92 118.33,196.01 102.15,228.22 								"/>
								<polygon class="st19" points="65.47,235.97 93.3,180.56 97.69,183.26 69.86,238.67 								"/>
								<polygon class="st20" points="99.67,167.91 114.48,138.43 118.86,141.13 104.06,170.61 								"/>
								<path class="st21" d="M152.44,159.28l-51.29,102.16c-1.29,2.57-3.99,3.49-6.08,2.18l-2.53-1.57l55.9-111.33l2.53,1.57
									C153.08,153.61,153.72,156.73,152.44,159.28z"/>
								<polygon class="st20" points="112.62,175.87 127.42,146.39 141.51,155.07 126.7,184.55 								"/>
							</g>
							<path d="M91.19,234.88l-77.08-19.14L44.41,93.7l77.35,19.2c2.24,0.56,3.52,3.16,2.86,5.82L96.8,230.78
								C96.11,233.64,93.58,235.48,91.19,234.88z"/>
						</g>
					</g>
					<g>
						<path class="st22" d="M73.05,125.55c0.04,0.01,0.07,0.02,0.11,0.03c0.25,0.75,0.49,1.5,0.73,2.24c0.8-0.7,1.31-0.96,2.23-1.11
							c0.38-0.06,0.76-0.07,1.14-0.11c0.04,0.01,0.07,0.02,0.11,0.03c-0.2,0.58-0.39,1.16-0.58,1.72c0.64-0.12,1.29-0.24,1.95-0.36
							c0.05-0.17,0.1-0.35,0.16-0.54c0.73,0.06,1.4,0.22,2.05,0.51c0.25,0.11,0.27,0.25,0.19,0.53c-0.16,0.57-0.29,1.15-0.43,1.72
							c0.81,0.37,1.61,0.71,2.4,1.09c0.21,0.1,0.3,0.06,0.42-0.18c0.28-0.58,0.59-1.14,0.89-1.72c1.21,0.62,2.33,1.35,3.4,2.23
							c-0.43,0.63-0.84,1.23-1.25,1.81c0.77,0.76,1.52,1.5,2.27,2.24c0.49-0.56,0.97-1.1,1.47-1.67c0.97,1.11,1.82,2.28,2.58,3.59
							c-0.58,0.44-1.14,0.86-1.59,1.2c0.47,1.06,0.93,2.08,1.39,3.12c0.6-0.36,1.18-0.71,1.77-1.06c0.61,1.38,1.07,2.8,1.42,4.29
							c-0.62,0.27-1.22,0.53-1.8,0.79c0.2,1.18,0.39,2.32,0.59,3.47c0.63-0.13,1.25-0.26,1.94-0.4c0.04,1.56,0.09,3.07,0.13,4.63
							c-0.68,0.05-1.29,0.09-1.9,0.13c-0.12,1.24-0.24,2.46-0.36,3.69c0.49,0.12,0.98,0.25,1.48,0.37c0.2,0.05,0.3,0.14,0.24,0.42
							c-0.12,0.55-0.21,1.11-0.33,1.65c-0.17,0.74-0.36,1.47-0.55,2.23c-0.65-0.16-1.23-0.31-1.82-0.45c-0.2,0.58-0.39,1.15-0.6,1.7
							c-0.21,0.56-0.44,1.12-0.67,1.7c0.57,0.29,1.13,0.56,1.73,0.86c-0.72,1.41-1.42,2.77-2.12,4.14
							c-0.59-0.42-1.11-0.79-1.62-1.15c-0.66,0.93-1.3,1.83-1.96,2.75c0.38,0.51,0.78,1.03,1.18,1.57c0.03-0.08,0.04-0.11,0.05-0.14
							c0.06-0.08,0.12-0.16,0.19-0.24c0.05,0.08,0.12,0.15,0.13,0.23c0.04,0.31,0.1,0.62,0.08,0.93c-0.04,0.52-0.14,1.05-0.22,1.6
							c0.05-0.07,0.09-0.12,0.11-0.17c0.42-0.89,0.83-1.78,1.24-2.67c0.04-0.09,0.12-0.17,0.19-0.25c0.04,0.1,0.11,0.2,0.11,0.3
							c-0.01,0.45-0.03,0.9-0.06,1.34c-0.11,1.55-0.37,3.08-0.99,4.53c-0.6,1.41-1.55,2.46-2.63,3.37c-0.3,0.25-0.59,0.51-0.9,0.79
							c0.57,0.32,1.06,0.68,1.33,1.31c0.05,0.12,0.07,0.29,0.04,0.42c-0.37,1.24-0.76,2.47-1.13,3.7c-0.27,0.88-0.78,1.46-1.55,1.65
							c-0.55,0.14-1.12,0.22-1.68,0.25c-0.52,0.03-1.03-0.05-1.56-0.08c0.02,0.12,0.07,0.22,0.05,0.3c-0.08,0.34-0.09,0.79-0.28,1
							c-1.19,1.31-2.44,2.56-3.65,3.85c-0.53,0.56-1.12,0.73-1.76,0.66c-0.62-0.07-1.14-0.39-1.65-0.73
							c-3.05-2.06-6.31-3.58-9.81-4.5c-2.36-0.62-4.74-1.11-7.19-1.25c-1.85-0.11-3.7-0.03-5.56,0.15
							c-0.62,0.06-1.24,0.11-1.83-0.13c-0.58-0.24-1.01-0.66-1.21-1.38c-0.47-1.7-0.96-3.4-1.44-5.1c-0.03-0.09-0.03-0.21-0.01-0.31
							c0.1-0.34,0.22-0.68,0.34-1.04c-0.09-0.03-0.23-0.09-0.38-0.15c-0.8-0.32-1.56-0.71-2.22-1.32c-0.64-0.6-0.92-1.37-0.7-2.39
							c0.24-1.16,0.48-2.31,0.67-3.48c0.07-0.44,0.27-0.69,0.6-0.81c0.47-0.17,0.95-0.28,1.45-0.42c-0.12-0.32-0.25-0.7-0.39-1.08
							c-0.36-1-0.61-2.03-0.54-3.16c0.14-2.33,1.08-4.38,2.09-6.41c0.02-0.05,0.13-0.09,0.16-0.07c0.04,0.04,0.09,0.13,0.08,0.19
							c-0.03,0.18-0.08,0.37-0.12,0.55c-0.15,0.84-0.29,1.67-0.44,2.51c0.03,0.01,0.06,0.01,0.08,0.02
							c0.04-0.07,0.08-0.15,0.12-0.22c0.45-0.7,0.89-1.4,1.35-2.09c0.04-0.06,0.14-0.06,0.21-0.09c0.01,0.08,0.04,0.16,0.04,0.24
							c0,0.05-0.03,0.1-0.05,0.16c-0.42,1.43-0.75,2.86-0.55,4.34c0.18,1.31,0.58,2.52,1.09,3.67c0.41,0.93,0.83,1.86,1.25,2.8
							c-0.67,0.67-1.33,1.32-2,1.97c-0.4,0.39-0.75,0.88-1.34,0.78c0.05,0.58,0.35,0.83,0.75,0.94c0.47,0.13,0.94,0.22,1.41,0.32
							c0.71,0.15,1.42,0.28,2.13,0.43c0.2,0.04,0.41,0.1,0.41,0.41c0.01,0.77,0.01,1.54,0.01,2.32c0,0.36,0.01,0.71,0.02,1.07
							c0.55-0.08,1.08-0.16,1.6-0.22c3.01-0.32,5.95-0.01,8.86,0.49c0.2,0.03,0.37,0.05,0.5-0.22c-4.28-2.34-8.56-4.68-12.83-7.02
							c0.97-0.95,1.92-1.87,2.88-2.81c-0.09-0.11-0.15-0.18-0.21-0.24c-0.98-1.05-1.97-2.09-2.95-3.14
							c-0.41-0.44-0.44-0.64-0.13-1.25c0.09-0.17,0.19-0.35,0.32-0.48c0.15-0.16,0.16-0.28,0.08-0.48
							c-0.42-0.98-0.82-1.98-1.24-2.96c-0.11-0.26-0.08-0.48,0.11-0.68c0.19-0.2,0.39-0.37,0.59-0.56
							c-0.25-0.24-0.51-0.47-0.75-0.74c-0.33-0.37-0.54-0.84-0.51-1.4c0.05-0.85,0.35-1.54,1.13-1.81
							c-0.16-0.48-0.33-0.94-0.46-1.41c-0.53-1.87-0.22-3.85-0.14-5.8c0-0.05,0.07-0.1,0.11-0.16c0.03,0.05,0.08,0.1,0.09,0.17
							c0.07,0.48,0.12,0.96,0.19,1.44c0.01,0.1,0.03,0.21,0.06,0.37c0.03-0.1,0.05-0.12,0.05-0.14c0.02-0.59,0.02-1.18,0.06-1.77
							c0.04-0.59,0.03-1.2,0.18-1.76c0.16-0.58,0.08-1.11,0.13-1.67c0-0.02,0.01-0.04,0.01-0.07c0.12-1.05,0.46-2.04,0.84-3.02
							c0.21-0.54,0.44-1.08,0.69-1.69c0.38,1.28,0.28,2.59,0.42,3.85c0.17-0.21,0.33-0.38,0.46-0.58c0.05-0.08,0.08-0.23,0.06-0.33
							c-0.14-0.56-0.34-1.1-0.45-1.68c-0.48-2.48,0.33-4.71,2.13-6.41c0.1,0.27,0.19,0.52,0.27,0.73c0.29-0.38,0.53-0.79,0.84-1.1
							c0.35-0.36,0.76-0.63,1.14-0.95c0.08-0.07,0.17-0.19,0.19-0.29c0.09-0.6,0.28-1.15,0.56-1.68c0.85-1.57,2.02-2.81,3.15-4.16
							c0.03,0.19,0.06,0.36,0.09,0.51c0.45-0.42,0.88-0.83,1.32-1.24c0.03,0.01,0.05,0.02,0.08,0.04c0,0.79,0.02,1.59-0.01,2.38
							c-0.03,0.8-0.21,1.58-0.53,2.42c0.79-0.67,1.51-1.28,2.24-1.89c-1.44-1.49-1.72-3.11-0.78-4.73c0.44,0.54,0.87,1.06,1.31,1.6
							c0.53-0.9,1.31-1.46,2.2-1.89c0.4,0.83,0.11,1.69-0.03,2.54c0.42-0.02,0.83-0.08,1.23-0.03c0.44,0.05,0.68-0.22,0.91-0.64
							c-0.52-0.04-1.05-0.07-1.34-0.64c-0.17-0.33-0.17-1.58,0-1.79c0.04,0.05,0.08,0.09,0.14,0.15c0.39-0.62,0.87-1.06,1.48-1.31
							c0.41-0.17,0.61-0.11,0.86,0.26c0.05,0.08,0.15,0.14,0.23,0.15c0.29,0.01,0.48,0.18,0.62,0.45c0.1,0.2,0.18,0.41,0.3,0.68
							c0.09-0.13,0.19-0.22,0.22-0.33C72.17,126.97,72.58,126.25,73.05,125.55z M70.46,147.68c-0.06,0.27-0.15,0.54-0.18,0.82
							c-0.19,1.48-0.37,2.96-0.56,4.44c-0.15,1.19-0.29,2.37-0.44,3.56c-0.01,0.08-0.03,0.2,0.01,0.25c0.3,0.37,0.6,0.73,0.95,1.15
							c0.15-0.85,0.29-1.6,0.43-2.36c0.11-0.63,0.22-1.26,0.35-1.88c0.01-0.07,0.12-0.12,0.19-0.18c0.03,0.08,0.1,0.16,0.1,0.24
							c-0.02,0.23-0.07,0.46-0.11,0.68c-0.19,1-0.35,2-0.57,2.98c-0.14,0.62-0.06,1.07,0.37,1.41c0.07,0.05,0.11,0.14,0.17,0.2
							c0.08,0.07,0.19,0.18,0.26,0.15c0.08-0.04,0.15-0.19,0.18-0.31c1.1-4.33,2.19-8.66,3.28-13c0.02-0.08,0.03-0.16,0.06-0.28
							c-0.12,0.06-0.21,0.09-0.3,0.14c-1.28,0.63-2.55,1.27-3.83,1.9C70.7,147.62,70.57,147.64,70.46,147.68
							c0.04-0.12,0.07-0.26,0.14-0.37c0.79-1.4,1.58-2.8,2.38-4.19c0.12-0.21,0.13-0.35,0-0.54c-0.88-1.25-1.75-2.51-2.62-3.77
							c-0.07-0.1-0.13-0.21-0.19-0.31c0.02-0.03,0.03-0.05,0.05-0.08c0.09,0.02,0.19,0.05,0.28,0.07c1.32,0.35,2.65,0.68,3.96,1.05
							c0.29,0.08,0.43-0.02,0.59-0.31c0.81-1.45,1.63-2.89,2.45-4.33c0.05-0.09,0.12-0.18,0.17-0.27c0.07,0.15,0.07,0.26,0.07,0.38
							c0.03,1.62,0.07,3.23,0.09,4.85c0,0.31,0.1,0.4,0.33,0.45c1.38,0.34,2.75,0.7,4.13,1.06c0.1,0.03,0.19,0.07,0.36,0.14
							c-0.18,0.1-0.29,0.16-0.39,0.21c-1.31,0.66-2.62,1.32-3.94,1.96c-0.21,0.1-0.29,0.23-0.28,0.5c0.04,1.61,0.06,3.21,0.08,4.82
							c0,0.05,0.02,0.11,0.04,0.22c0.16-0.43,0.3-0.8,0.44-1.17c0.46-1.24,0.92-2.49,1.4-3.73c0.03-0.07,0.15-0.1,0.23-0.15
							c0.01,0.09,0.06,0.2,0.04,0.27c-0.18,0.51-0.38,1.01-0.56,1.51c-0.49,1.31-0.97,2.61-1.46,3.92
							c-0.49,1.31-0.97,2.61-1.46,3.92c-0.36,0.97-0.73,1.95-1.11,2.98c0.14-0.07,0.24-0.11,0.33-0.16
							c0.43-0.24,0.86-0.48,1.28-0.72c0.27-0.15,0.58-0.25,0.7-0.65c0.02-0.08,0.12-0.14,0.2-0.2c0.54-0.39,0.91-0.34,1.33,0.21
							c1.38-2.68,2.76-5.36,4.16-8.07c0.1,0.08,0.16,0.13,0.23,0.19c-0.07,0.14-0.12,0.25-0.18,0.35c-1.35,2.61-2.69,5.23-4.04,7.84
							c-0.2,0.39-0.2,0.43,0.16,0.52c0.41,0.09,0.69,0.3,0.77,0.82c0.06,0.39,0.21,0.75,0.31,1.12c0.08,0.27,0.16,0.53,0.25,0.84
							c0.1-0.14,0.16-0.22,0.22-0.31c1.45-2.15,2.91-4.3,4.37-6.44c0.06-0.09,0.22-0.18,0.28-0.15c0.18,0.09,0.03,0.24-0.04,0.34
							c-1.62,2.42-3.24,4.85-4.87,7.26c-1.1,1.62-2.21,3.23-3.32,4.84c-0.29,0.42-0.57,0.85-0.87,1.29c0.2,0.23,0.38,0.44,0.56,0.67
							c0.11-0.14,0.19-0.24,0.27-0.34c0.99-1.29,1.97-2.58,2.95-3.87c0.16-0.2,0.27-0.24,0.36,0.03c-0.08,0.1-0.14,0.2-0.21,0.29
							c-0.92,1.21-1.84,2.41-2.76,3.62c-0.46,0.6-0.45,0.62,0.11,1.08c0.09-0.11,0.19-0.21,0.28-0.32c2.67-3.22,5.34-6.45,8.02-9.67
							c0.1-0.12,0.19-0.45,0.39-0.22c0.17,0.2-0.08,0.32-0.18,0.44c-2.71,3.29-5.43,6.56-8.15,9.85c-0.05,0.06-0.1,0.13-0.16,0.22
							c0.13,0.15,0.25,0.28,0.38,0.44c0.1-0.1,0.19-0.19,0.27-0.28c0.76-0.82,1.51-1.65,2.27-2.47c0.21-0.23,0.23-0.22,0.35,0.08
							c-0.88,0.96-1.77,1.93-2.67,2.91c0.1,0.16,0.18,0.29,0.27,0.44c2.39-2.4,4.76-4.8,7.15-7.2c0.07,0.1,0.12,0.17,0.17,0.26
							c-0.11,0.12-0.2,0.22-0.3,0.31c-2.26,2.28-4.52,4.55-6.78,6.83c-0.12,0.12-0.21,0.29-0.27,0.46c-0.16,0.45-0.42,0.79-0.81,0.9
							c-0.67,0.17-1,0.86-1.58,1.3c0.49,0.06,0.85,0.03,1.21-0.34c1.01-1.02,2.06-1.99,3.1-2.97c0.07-0.07,0.25-0.12,0.3-0.07
							c0.14,0.14-0.02,0.24-0.11,0.33c-0.71,0.68-1.42,1.35-2.13,2.03c-0.38,0.37-0.76,0.73-1.15,1.1c0.17,0.3,0.33,0.18,0.52,0.01
							c2.18-1.9,4.36-3.79,6.54-5.69c0.17-0.15,0.32-0.26,0.37,0.09c-0.08,0.07-0.15,0.14-0.23,0.21c-1.3,1.13-2.59,2.26-3.89,3.38
							c-0.88,0.76-1.75,1.52-2.63,2.28c-0.11,0.1-0.26,0.19-0.06,0.43c0.08-0.08,0.15-0.17,0.24-0.24c0.66-0.49,1.32-0.97,1.97-1.46
							c0.2-0.15,0.28-0.09,0.32,0.17c-0.77,0.57-1.53,1.14-2.3,1.69c-0.23,0.17-0.22,0.31-0.09,0.53c1.37-1.02,2.73-2.03,4.08-3.04
							c0.24,0.19,0.13,0.31-0.05,0.45c-1.25,0.93-2.49,1.85-3.74,2.79c-0.08,0.06-0.21,0.21-0.19,0.28c0.05,0.33,0.15,0.65,0.23,1
							c0.13-0.07,0.22-0.12,0.3-0.17c4.85-2.95,8.25-7.39,10.17-13.3c0.71-2.17,1.1-4.4,1.19-6.67c0.32-8.22-3.15-15.41-9.18-19.05
							c-1.22-0.73-2.52-1.25-3.86-1.66c-0.11-0.03-0.32-0.01-0.34,0.05c-0.14,0.32-0.36,0.41-0.62,0.48
							c-0.12,0.03-0.26,0.12-0.35,0.22c-0.37,0.39-0.77,0.42-1.2,0.32c-0.25-0.06-0.49-0.12-0.76-0.19
							c-0.03,0.16-0.06,0.33-0.12,0.6c-0.24-0.53-0.47-0.96-0.62-1.43c-0.08-0.27-0.09-0.63-0.01-0.92
							c0.12-0.43,0.34-0.84,0.53-1.29c-0.04-0.04-0.1-0.11-0.12-0.14c-0.53,0.38-1.04,0.73-1.51,1.07c0.36,0.65,0.74,1.34,1.14,2.06
							c-1.44,0.45-2.7,0.46-3.57-1.02c-0.18,0.92-0.64,1.57-1.18,2.14c-0.28,0.3-0.62,0.52-0.89,0.83
							c-0.31,0.35-0.66,0.55-1.05,0.69c-0.29,0.1-0.59,0.18-0.88,0.3c-0.16,0.06-0.24,0.02-0.32-0.12c-0.19-0.32-0.4-0.62-0.61-0.96
							c-0.1,0.1-0.21,0.19-0.31,0.3c-0.28,0.32-0.55,0.64-0.83,0.96c-0.66,0.75-1.44,1.15-2.32,1.19c-0.34,0.01-0.69-0.04-1.03-0.06
							c-0.38-0.03-0.52,0.1-0.63,0.56c0.6-0.16,1.2-0.31,1.86-0.49c-0.08,0.27-0.12,0.48-0.2,0.64c-0.4,0.77-0.78,1.56-1.24,2.29
							c-0.59,0.94-1.3,1.76-2.2,2.3c-0.49,0.3-1.01,0.46-1.54,0.32c-0.28-0.07-0.54-0.22-0.8-0.32c-0.28,0.59-0.56,1.18-0.82,1.73
							c1.27-0.42,2.57-0.85,3.87-1.29c0.01,0.03,0.02,0.07,0.02,0.1c-0.52,0.84-1.04,1.67-1.59,2.55c0.17,0.01,0.3,0.02,0.45,0.04
							c-0.8,1.63-1.76,2.92-3.41,3.22c0.42,1.45,0.27,2.96,0.31,4.38c0.09-0.05,0.18-0.11,0.28-0.16c0.02,0.13,0.08,0.27,0.06,0.39
							c-0.25,1.45-0.51,2.9-0.77,4.35c-0.04,0.23-0.07,0.46-0.12,0.74c0.12-0.04,0.19-0.06,0.26-0.08c0.47-0.18,0.73,0.04,0.69,0.6
							c-0.03,0.47-0.07,0.93-0.11,1.44c0.54-0.02,0.56,0.39,0.58,0.86c0.03,0.81,0.1,1.62,0.16,2.43c0.01,0.09,0.03,0.24,0.08,0.25
							c0.19,0.05,0.4,0.11,0.6,0.08c0.46-0.06,0.55-0.02,0.68,0.49c0.21,0.86,0.42,1.73,0.63,2.59c0.02,0.09,0.05,0.17,0.09,0.28
							c0.19-0.21,0.35-0.4,0.52-0.56c0.13-0.13,0.13-0.23,0.05-0.39c-0.3-0.6-0.58-1.22-0.88-1.82c-0.11-0.22-0.07-0.33,0.17-0.4
							c0.36,0.7,0.72,1.4,1.09,2.1c0.21-0.11,0.11-0.28,0.05-0.44c-0.77-2.05-1.54-4.1-2.31-6.15c-0.03-0.08-0.05-0.18-0.09-0.28
							c0.1-0.05,0.17-0.09,0.27-0.13c0.82,2.19,1.64,4.36,2.45,6.52c0.19-0.09,0.34-0.16,0.53-0.25c-0.37-1.07-0.74-2.14-1.1-3.2
							c0.21-0.24,0.29-0.13,0.36,0.07c0.29,0.86,0.61,1.7,0.88,2.57c0.11,0.37,0.3,0.56,0.64,0.63c-0.02-0.1-0.04-0.19-0.07-0.28
							c-1.12-3.7-2.24-7.41-3.35-11.11c-0.04-0.14-0.23-0.34,0.01-0.47c0.27-0.14,0.23,0.2,0.27,0.34c1.17,3.83,2.32,7.66,3.47,11.5
							c0.1,0.34,0.31,0.39,0.6,0.49c-0.13-0.5-0.24-0.92-0.34-1.35c-0.04-0.2-0.12-0.29-0.31-0.33c-0.35-0.07-0.47-0.5-0.23-0.82
							c0.16-0.21,0.14-0.37,0.09-0.59c-0.33-1.27-0.66-2.55-0.99-3.83c-0.02-0.08-0.02-0.16-0.04-0.26c0.1-0.03,0.17-0.06,0.27-0.09
							c0.38,1.48,0.76,2.93,1.13,4.4c0.13-0.07,0.22-0.12,0.31-0.16c0.25-0.09,0.3-0.26,0.22-0.53c-0.09-0.34-0.15-0.7-0.23-1.06
							c-0.84-4.03-1.69-8.07-2.53-12.1c-0.04-0.21-0.08-0.39,0.24-0.38c0.96,4.56,1.92,9.14,2.87,13.72
							c0.58-0.25,0.58-0.25,0.48-0.87c-0.3-1.81-0.59-3.63-0.89-5.44c-0.04-0.23-0.04-0.39,0.26-0.36c0.34,2.05,0.67,4.12,1.02,6.21
							c0.16-0.09,0.3-0.18,0.44-0.23c0.24-0.09,0.31-0.24,0.27-0.54c-0.54-5.05-1.07-10.1-1.6-15.16c-0.03-0.31-0.07-0.62-0.09-0.93
							c0-0.06,0.08-0.14,0.13-0.21c0.06,0.05,0.13,0.08,0.16,0.14c0.03,0.06,0.02,0.15,0.03,0.22c0.52,4.96,1.04,9.91,1.55,14.87
							c0.04,0.4,0.09,0.81,0.13,1.21c0.63-0.18,0.69-0.27,0.65-0.91c-0.15-2.2-0.3-4.4-0.46-6.6c-0.01-0.1-0.03-0.2-0.01-0.29
							c0.01-0.06,0.08-0.15,0.13-0.16c0.05-0.01,0.12,0.05,0.15,0.11c0.03,0.06,0.02,0.15,0.02,0.22c0.15,2.22,0.31,4.44,0.46,6.66
							c0.01,0.14,0.03,0.28,0.05,0.46c0.25-0.14,0.47-0.24,0.67-0.38c0.08-0.06,0.17-0.22,0.17-0.32c0.01-1.66,0.01-3.33,0-4.99
							c0-0.14-0.06-0.28-0.13-0.39c-0.36-0.55-0.62-1.16-0.69-1.88c-0.1-1.01,0.21-1.92,0.65-2.81c0.1-0.2,0.17-0.46,0.17-0.68
							c0.01-1.94,0-3.87,0-5.81c0-0.59-0.01-1.17,0.01-1.76c0-0.09,0.09-0.19,0.14-0.29c0.05,0.09,0.1,0.18,0.15,0.27
							c0.01,0.02,0,0.06,0,0.1c0,1.95,0,3.89,0,5.84c0,0.45,0.01,0.9,0.01,1.35c0.04-0.01,0.05-0.01,0.06-0.01
							c0.1-0.16,0.2-0.34,0.31-0.49c0.06-0.07,0.16-0.09,0.25-0.13c0.03,0.1,0.1,0.2,0.08,0.29c-0.25,1.24-0.02,2.33,0.48,3.35
							c0.03,0.07,0.08,0.12,0.13,0.21c0.02-0.07,0.03-0.1,0.04-0.13c0.05-0.11,0.09-0.31,0.15-0.32c0.21-0.04,0.15,0.17,0.15,0.31
							c0,0.25-0.08,0.57,0.02,0.73c0.32,0.53,0.71,1.01,1.08,1.51c0.04-0.02,0.07-0.03,0.11-0.05c0.6-4.82,1.21-9.64,1.81-14.46
							c0.33-0.07,0.29,0.14,0.27,0.34c-0.21,1.62-0.42,3.24-0.62,4.86C70.42,147.24,70.45,147.46,70.46,147.68z M48.23,183.26
							c0.03,0.12,0.06,0.22,0.09,0.32c0.42,1.48,0.85,2.95,1.25,4.43c0.15,0.54,0.45,0.87,0.86,1.11c0.52,0.3,1.09,0.29,1.66,0.23
							c3.26-0.32,6.48-0.33,9.65,0.3c2.6,0.52,5.16,1.16,7.62,2.2c1.83,0.77,3.57,1.72,5.25,2.83c0.6,0.39,1.17,0.85,1.88,0.97
							c0.54,0.09,1.08,0.03,1.53-0.43c1.13-1.16,2.24-2.33,3.36-3.5c0.06-0.06,0.11-0.13,0.19-0.23c-0.14-0.03-0.23-0.05-0.32-0.08
							c-1.31-0.38-2.49-1.04-3.58-1.95c-0.9-0.76-1.85-1.46-2.83-2.08c-1.7-1.08-3.54-1.86-5.41-2.52
							c-1.65-0.59-3.31-1.17-5.05-1.47c-2.15-0.37-4.31-0.68-6.51-0.71c-1.74-0.03-3.48,0.09-5.22,0.54
							c-0.86,0.22-1.72,0.34-2.58,0.27C49.47,183.43,48.87,183.34,48.23,183.26z M80.1,181.13c-0.01-0.06-0.01-0.1-0.01-0.13
							c-0.74-2.99-1.48-5.98-2.21-8.98c-0.04-0.18-0.13-0.22-0.28-0.22c-1.47,0.02-2.9-0.21-4.31-0.54
							c-0.73-0.17-1.45-0.39-2.19-0.54c-0.71-0.14-1.42-0.02-2.08,0.46c-0.21,0.15-0.33,0.34-0.4,0.62
							c-0.8,3.35-1.62,6.69-2.43,10.04c-0.02,0.08-0.04,0.16-0.06,0.24c0.06,0.01,0.08-0.01,0.1-0.04c0.6-0.92,1.42-1.39,2.34-1.63
							c1.03-0.26,2.04-0.24,3.05-0.09c1.74,0.26,3.47,0.57,5.21,0.8C77.9,181.29,78.99,181.28,80.1,181.13z M53.89,174.65
							c0.58,0.33,1.11,0.66,1.65,0.94c1.78,0.92,3.7,1.47,5.59,2.08c1.15,0.37,2.27,0.83,3.23,1.65c0.74,0.64,1.27,1.45,1.4,2.58
							c0,0.03,0.03,0.06,0.06,0.12c0.03-0.13,0.05-0.2,0.07-0.27c0.82-3.25,1.63-6.51,2.48-9.75c0.16-0.6,0.05-1.02-0.26-1.4
							c-0.17-0.21-0.36-0.44-0.58-0.55c-0.47-0.23-0.96-0.45-1.47-0.57c-1.91-0.46-3.8-0.96-5.54-1.92
							c-0.17-0.09-0.26-0.02-0.39,0.12c-1.22,1.37-2.44,2.74-3.67,4.11C55.61,172.73,54.78,173.66,53.89,174.65z M67.26,183.45
							c0.11,0.12,0.2,0.21,0.29,0.3c0.06,0.06,0.1,0.16,0.17,0.19c0.52,0.19,1.04,0.35,1.55,0.54c1.91,0.68,3.78,1.47,5.54,2.53
							c0.82,0.5,1.6,1.05,2.42,1.59c0.01-0.02,0.05-0.06,0.07-0.11c0.47-0.86,0.95-1.71,1.41-2.57c0.27-0.49,0.33-0.54,0.79-0.4
							c0.69,0.21,1.39,0.42,2.08,0.62c0.44,0.13,0.87,0.26,1.32,0.35c0.39,0.08,0.76-0.01,1.02-0.42c-0.18-0.2-0.43-0.33-0.51-0.56
							c-0.39-1.14-0.74-2.3-1.11-3.48c0.1-0.08,0.19-0.16,0.27-0.23c0.69-0.54,1.37-1.07,2.06-1.61c1.4-1.09,2.62-2.4,3.6-4
							c0.49-0.8,0.88-1.66,1.14-2.61c-0.99,1.06-1.95,2.1-2.94,3.15c-0.4-0.68-0.77-1.3-1.13-1.9c-0.89,0.7-1.76,1.39-2.66,2.09
							c0.3,0.66,0.6,1.33,0.92,2.03c-0.93,0.56-1.83,1.11-2.76,1.68c0.29,0.87,0.59,1.74,0.89,2.63
							C76.9,183.31,72.09,183.38,67.26,183.45z M71.08,147.06c0.17-0.08,0.27-0.12,0.36-0.17c1.16-0.58,2.33-1.15,3.49-1.74
							c0.21-0.11,0.33-0.09,0.47,0.11c0.72,1.06,1.46,2.11,2.2,3.16c0.05,0.08,0.11,0.15,0.2,0.26c0-0.14,0.01-0.23,0.01-0.31
							c-0.03-1.45-0.04-2.91-0.09-4.36c-0.01-0.31,0.08-0.44,0.32-0.55c1.14-0.55,2.27-1.13,3.41-1.7c0.08-0.04,0.16-0.09,0.31-0.18
							c-1.36-0.34-2.64-0.66-3.92-0.97c-0.23-0.05-0.31-0.18-0.31-0.45c-0.02-1.39-0.05-2.78-0.08-4.17c0-0.11-0.01-0.22-0.01-0.4
							c-0.09,0.15-0.13,0.22-0.18,0.3c-0.71,1.25-1.43,2.51-2.14,3.77c-0.14,0.26-0.27,0.34-0.53,0.27
							c-1.16-0.32-2.34-0.61-3.51-0.91c-0.06-0.02-0.13-0.02-0.24-0.04c0.84,1.21,1.64,2.37,2.45,3.52c0.16,0.22,0.15,0.37,0,0.62
							c-0.65,1.12-1.28,2.24-1.91,3.37C71.31,146.64,71.22,146.81,71.08,147.06z M75.24,145.62c-1.11,4.47-2.19,8.84-3.29,13.24
							c0.33-0.18,0.63-0.38,0.94-0.52c0.28-0.13,0.4-0.36,0.48-0.66c0.17-0.62,0.35-1.23,0.53-1.84c0.13-0.44,0.26-0.89,0.4-1.33
							c0.03-0.09,0.15-0.14,0.23-0.21c0.02,0.1,0.07,0.21,0.04,0.3c-0.2,0.72-0.42,1.44-0.63,2.16c-0.1,0.36-0.18,0.73-0.29,1.15
							c0.39-0.21,0.72-0.44,1.07-0.58c0.43-0.17,0.61-0.52,0.76-0.97c0.41-1.17,0.86-2.33,1.29-3.49c0.37-0.99,0.73-1.97,1.11-2.96
							c0.09-0.24,0.07-0.42-0.08-0.61c-0.63-0.88-1.24-1.77-1.86-2.66C75.74,146.32,75.52,146.01,75.24,145.62z M66.46,151.18
							c-0.02-0.01-0.04-0.02-0.06-0.02c-0.24,0.47-0.51,0.92-0.73,1.4c-0.74,1.62-0.48,3.15,0.55,4.25
							c2.34,2.47,4.65,4.97,6.98,7.46c0.64,0.69,1.28,1.37,1.94,2.07c0.31-0.38,0.6-0.74,0.9-1.12c-0.08-0.1-0.14-0.19-0.21-0.27
							c-1.88-2.22-3.76-4.42-5.63-6.65c-0.9-1.07-1.8-2.15-2.64-3.28c-0.66-0.89-1.09-1.96-1.11-3.22
							C66.45,151.59,66.46,151.38,66.46,151.18z M91.04,173.73c-0.48,0.85-0.97,1.74-1.47,2.61c-0.06,0.1-0.19,0.14-0.28,0.21
							c-0.01-0.13-0.06-0.27-0.04-0.39c0.06-0.32,0.17-0.64,0.23-0.97c0.08-0.46,0.13-0.92,0.19-1.39c-0.02,0-0.05,0-0.07,0
							c-0.08,0.22-0.15,0.44-0.23,0.65c-0.09,0.23-0.17,0.45-0.27,0.67c-0.91,1.96-2.21,3.52-3.75,4.83
							c-0.81,0.69-1.65,1.32-2.49,1.97c-0.19,0.15-0.21,0.26-0.13,0.48c0.24,0.71,0.46,1.44,0.68,2.15c0.03,0.09,0.06,0.17,0.1,0.25
							c-0.02-0.06-0.04-0.11-0.06-0.17c0.24-0.12,0.5-0.21,0.72-0.36c1.13-0.77,2.3-1.43,3.36-2.38c1.26-1.13,2.32-2.39,2.86-4.14
							C90.79,176.42,90.96,175.06,91.04,173.73z M65.93,183.19c5.1-0.07,10.17-0.14,15.28-0.21c-0.22-0.35-0.44-0.62-0.59-0.94
							c-0.23-0.49-0.54-0.75-1.06-0.56c-0.09,0.03-0.19,0.01-0.28,0.02c-2.27,0.14-4.45-0.3-6.64-0.7c-1.1-0.2-2.21-0.36-3.36-0.22
							C67.84,180.77,66.63,181.42,65.93,183.19z M65.49,183.07c0.17-1.4-0.2-2.5-1.13-3.37c-0.8-0.76-1.75-1.21-2.74-1.56
							c-1.13-0.4-2.28-0.75-3.41-1.13c-1.52-0.51-3-1.14-4.35-2.08c-0.07-0.05-0.2-0.08-0.28-0.04c-0.49,0.27-0.97,0.55-1.49,0.86
							C56.57,178.2,61.02,180.63,65.49,183.07z M48.46,163.72c-0.17,0.41-0.38,0.88-0.57,1.35c-0.47,1.19-0.84,2.41-0.92,3.7
							c-0.11,1.76,0.47,3.25,1.14,4.68c0.48,1.01,1.07,1.94,1.61,2.91c0.62-0.61,1.29-1.27,1.96-1.94c-0.14-0.32-0.27-0.6-0.39-0.88
							c-0.48-1.15-1-2.28-1.41-3.46c-0.54-1.53-0.72-3.15-0.32-4.87c0.08-0.32,0.13-0.65,0.22-1.06c-0.64,0.82-1.02,1.72-1.43,2.61
							c-0.05-0.18-0.1-0.34-0.09-0.51C48.32,165.4,48.4,164.54,48.46,163.72z M84.22,186.12c-0.4,0.62-0.89,0.78-1.42,0.65
							c-0.77-0.19-1.54-0.43-2.31-0.63c-0.46-0.12-0.93-0.23-1.41-0.35c-0.14,0.4-0.07,0.78,0.13,1.05c0.32,0.44,0.65,0.88,1.05,1.2
							c0.58,0.48,1.17,0.94,1.65,1.56c0.07,0.1,0.18,0.2,0.29,0.21c0.9,0.13,1.81,0.22,2.73,0.02c0.45-0.09,0.89-0.24,1.27-0.59
							c0.5-0.46,0.61-1.07,0.26-1.62c-0.17-0.26-0.39-0.5-0.64-0.66C85.31,186.66,84.77,186.41,84.22,186.12z M48.4,177.27
							c-0.28-0.02-0.53-0.06-0.78-0.07c-0.6-0.03-1.19-0.06-1.78,0.22c-0.67,0.32-0.93,1.02-0.61,1.72c0.15,0.32,0.36,0.61,0.6,0.84
							c0.65,0.65,1.46,0.99,2.27,1.33c0.37,0.16,0.71,0.08,1.08-0.06c0.44-0.17,0.9-0.26,1.35-0.38c0.56-0.16,1.13-0.28,1.68-0.51
							c0.27-0.11,0.53-0.38,0.73-0.64c0.23-0.3,0.16-0.45-0.16-0.52c-1.05-0.21-2.1-0.42-3.14-0.65
							C49.02,178.42,48.47,178.15,48.4,177.27z M55.09,162.36c0.09,0.49,0.19,0.95,0.27,1.43c0.01,0.07-0.04,0.16-0.07,0.24
							c-0.05-0.05-0.13-0.1-0.15-0.17c-0.08-0.37-0.14-0.75-0.23-1.12c-0.03-0.13-0.12-0.31-0.21-0.33
							c-0.19-0.04-0.28,0.15-0.31,0.36c-0.01,0.09-0.04,0.17-0.05,0.26c-0.14,1.06-0.14,2.12-0.02,3.16
							c0.03,0.27,0.07,0.53,0.09,0.8c0,0.06-0.05,0.16-0.1,0.21c-0.02,0.02-0.11-0.03-0.15-0.07c-0.04-0.04-0.07-0.1-0.1-0.15
							c-0.77-1.22-1.53-2.44-2.3-3.66c-0.05-0.09-0.17-0.19-0.25-0.16c-0.17,0.05-0.34,0.17-0.51,0.26c0.2,0.58,0.39,1.11,0.56,1.65
							c0.03,0.09-0.01,0.22-0.01,0.33c-0.07-0.08-0.16-0.14-0.2-0.24c-0.19-0.51-0.36-1.03-0.54-1.56
							c-0.45,0.31-0.48,0.39-0.28,0.87c0.18,0.44,0.36,0.88,0.55,1.31c0.23,0.54,0.45,1.08,0.69,1.66c0.43-0.58,0.63,0.1,1,0.11
							c-0.12-0.55-0.21-1.1-0.36-1.61c-0.19-0.64-0.44-1.26-0.65-1.89c-0.04-0.12-0.02-0.26-0.02-0.4c0.08,0.09,0.18,0.16,0.22,0.27
							c0.22,0.58,0.41,1.18,0.62,1.76c0.05,0.13,0.12,0.27,0.21,0.36c0.6,0.59,1.07,1.3,1.45,2.1c0.32,0.66,0.62,1.34,0.95,1.99
							c0.14,0.27,0.33,0.49,0.5,0.73c0.03-0.02,0.06-0.04,0.08-0.07c-0.06-0.23-0.1-0.47-0.18-0.69c-0.26-0.74-0.53-1.46-0.78-2.2
							c-0.06-0.18-0.09-0.39-0.08-0.59c0.06-1.35,0.25-2.71-0.17-3.99c-0.02-0.06,0.03-0.17,0.05-0.25
							c0.06,0.06,0.14,0.11,0.16,0.18c0.12,0.48,0.23,0.97,0.35,1.45c0.11,0.42,0.38,0.86,0.57,0.98c-0.06-0.99-0.12-2.02-0.17-3.04
							C55.51,162.26,55.44,162.22,55.09,162.36z M79.27,161.78c0.57-0.83,1.12-1.61,1.65-2.4c0.04-0.06,0.04-0.19,0.02-0.26
							c-0.22-0.79-0.45-1.58-0.69-2.36c-0.03-0.11-0.14-0.21-0.23-0.25c-0.26-0.09-0.53-0.14-0.79-0.2
							c0.08-0.85-0.02-1.11-0.41-1.17c-0.16,0.25-0.09,0.49,0,0.71c0.09,0.22,0.23,0.42,0.36,0.67c-0.07,0.04-0.14,0.08-0.21,0.11
							c-0.26,0.11-0.36,0.32-0.42,0.62c-0.1,0.54-0.23,1.08-0.34,1.62c-0.02,0.12-0.02,0.27,0.02,0.37
							C78.56,160.06,78.91,160.89,79.27,161.78z M51.67,156.07c-0.03,0-0.06,0.01-0.09,0.01c-0.02,0.37-0.01,0.74-0.05,1.11
							c-0.07,0.63-0.21,1.26-0.27,1.89c-0.11,1.18,0.33,2.08,0.97,2.87c0.14,0.17,0.27,0.37,0.34,0.6c0.26,0.84,0.49,1.69,0.73,2.54
							c0.15,0.53,0.5,0.86,0.79,1.26c-0.11-1.19-0.2-2.39,0.11-3.56c0.17-0.64-0.03-1.03-0.19-1.51c-0.03-0.08,0-0.18,0.01-0.28
							c0.06,0.05,0.15,0.08,0.19,0.15c0.12,0.27,0.21,0.57,0.35,0.83c0.05,0.1,0.21,0.11,0.32,0.16c0.04-0.09,0.09-0.18,0.1-0.28
							c0.05-0.44,0.1-0.87,0.12-1.31c0.01-0.12-0.04-0.3-0.11-0.35c-0.08-0.06-0.23,0.01-0.37,0.02c0.04,0.16,0.07,0.25,0.07,0.35
							c0,0.07-0.04,0.14-0.06,0.22c-0.05-0.04-0.11-0.07-0.15-0.12c-0.02-0.03-0.01-0.09-0.04-0.12c-0.07-0.1-0.15-0.26-0.24-0.26
							c-0.17,0-0.24,0.14-0.26,0.36c-0.09,1.22-0.19,2.44-0.29,3.67c-0.01,0.13-0.1,0.25-0.15,0.38c-0.05-0.11-0.12-0.21-0.15-0.33
							c-0.13-0.55-0.22-1.11-0.38-1.64c-0.11-0.38-0.14-0.73,0-1.13c0.18-0.52,0.08-1-0.23-1.34c-0.42-0.46-0.57-1.04-0.65-1.7
							C51.98,157.73,51.81,156.9,51.67,156.07z M51.44,168.23c-0.39,0.5-0.4,0.8-0.04,1.17c0.48,0.51,0.96,1.02,1.44,1.53
							c0.56,0.6,1.13,1.19,1.71,1.81c0.08-0.1,0.15-0.17,0.22-0.25c-0.05-0.13-0.09-0.23-0.12-0.34c-0.4-1.19-0.95-2.28-1.51-3.37
							c-0.03-0.07-0.01-0.18-0.01-0.27c0.07,0.04,0.16,0.07,0.2,0.14c0.18,0.34,0.38,0.67,0.52,1.04c0.35,0.91,1.05,1.4,1.67,2.02
							c0.1-0.11,0.18-0.2,0.28-0.3c-0.25-0.33-0.49-0.64-0.72-0.96c-0.76-1.06-1.6-2.02-2.64-2.71c-0.41-0.27-0.49-0.25-0.83,0.27
							c0.06,0.09,0.13,0.19,0.19,0.29c0.62,0.88,1.25,1.77,1.87,2.66c0.05,0.07,0.04,0.19,0.06,0.29c-0.08-0.04-0.18-0.06-0.23-0.13
							c-0.62-0.87-1.24-1.75-1.86-2.62C51.57,168.4,51.51,168.32,51.44,168.23z M75.15,163.64c0.06-0.09,0.1-0.16,0.14-0.24
							c0.82-1.58,1.62-3.17,2.45-4.75c0.27-0.52,0.5-1.03,0.57-1.62c0.01-0.08,0.01-0.19-0.03-0.22c-0.05-0.04-0.15-0.05-0.22-0.02
							c-0.2,0.09-0.38,0.22-0.58,0.31c-0.26,0.11-0.4,0.31-0.52,0.59c-0.67,1.55-1.35,3.1-2.04,4.65
							C74.59,163.09,74.59,163.09,75.15,163.64z M76.02,164.7c0.05-0.05,0.08-0.06,0.1-0.09c0.77-1.25,1.53-2.5,2.3-3.76
							c0.04-0.07,0.07-0.18,0.05-0.24c-0.19-0.5-0.39-0.98-0.61-1.53c-0.83,1.62-1.63,3.16-2.42,4.71
							c-0.03,0.06-0.01,0.19,0.03,0.25C75.64,164.27,75.83,164.47,76.02,164.7z M74.42,162.75c0.76-1.72,1.51-3.43,2.29-5.21
							c-0.58,0.32-1.09,0.6-1.6,0.89c-0.06,0.04-0.12,0.15-0.15,0.23c-0.28,0.72-0.54,1.44-0.82,2.15c-0.46,1.2-0.46,1.2,0.18,1.89
							C74.34,162.71,74.36,162.72,74.42,162.75z M77.33,131.73c-0.38,0.1-0.74,0.27-1.08,0.26c-0.51-0.01-0.88,0.21-1.16,0.7
							c-0.16,0.27-0.36,0.52-0.45,0.81c-0.17,0.53-0.13,0.57,0.31,0.73c0.17,0.06,0.35,0.12,0.53,0.15c0.31,0.06,0.6-0.02,0.87-0.29
							c0.16-0.15,0.38-0.21,0.56-0.33c0.11-0.07,0.24-0.15,0.3-0.27C77.52,132.91,77.44,132.33,77.33,131.73z M69.94,161.22
							c-0.12,0.68-0.22,1.26-0.33,1.84c-0.24,1.28-0.47,2.55-0.71,3.83c-0.07,0.39,0.22,0.28,0.37,0.35c0.16,0.08,0.25,0,0.3-0.21
							c0.38-1.56,0.78-3.13,1.16-4.69c0.02-0.09,0.02-0.24-0.03-0.29C70.48,161.78,70.23,161.54,69.94,161.22z M54.6,151.87
							c-0.02,0-0.04,0.01-0.06,0.01c-0.14,0.75-0.29,1.49-0.43,2.24c-0.31,1.64-0.8,3.2-1.63,4.63c-0.05,0.08-0.08,0.21-0.06,0.29
							c0.05,0.2,0.13,0.39,0.21,0.63c0.18-0.25,0.34-0.45,0.47-0.67c0.83-1.42,1.64-2.83,1.53-4.6
							C54.57,153.56,54.6,152.71,54.6,151.87z M66.13,162.11c0.31-0.18,0.59-0.32,0.84-0.48c0.06-0.04,0.11-0.18,0.12-0.27
							c0.05-0.71,0.04-1.42,0.13-2.12c0.08-0.64-0.03-1.11-0.48-1.45c-0.21-0.16-0.38-0.39-0.61-0.64
							C66.13,158.85,66.13,160.45,66.13,162.11z M66.2,137.08c0.46-0.17,0.87-0.31,1.27-0.48c0.38-0.16,0.67-0.48,0.72-0.94
							c0.06-0.51,0.07-1.03,0.01-1.53c-0.05-0.43-0.27-0.47-0.58-0.18c-0.46,0.44-0.89,0.91-1.44,1.05
							C66.19,135.7,66.19,136.36,66.2,137.08z M69.59,161.46c-0.27,0.15-0.45,0.26-0.64,0.34c-0.3,0.12-0.4,0.34-0.44,0.69
							c-0.08,0.86-0.21,1.72-0.32,2.57c-0.08,0.65-0.16,1.3-0.24,1.96c0.22,0.03,0.4,0.06,0.6,0.09
							C68.9,165.22,69.24,163.38,69.59,161.46z M70.42,126.96c-0.21-0.05-0.39-0.17-0.54-0.12c-0.59,0.19-1.07,0.61-1.43,1.21
							c-0.05,0.09-0.05,0.28,0,0.36c0.33,0.5,0.84,0.61,1.35,0.73c0.31,0.07,0.45-0.25,0.67-0.37c0.19-0.11,0.37-0.25,0.56-0.36
							c0.13-0.08,0.27-0.15,0.39-0.22c-0.13-0.87-0.63-1-1.34-0.79C70.21,127.21,70.29,127.12,70.42,126.96z M71.05,162.41
							c-0.04,0.15-0.07,0.22-0.08,0.29c-0.36,1.44-0.72,2.89-1.09,4.33c-0.06,0.25-0.05,0.38,0.19,0.43
							c0.22,0.05,0.39,0.11,0.48-0.24c0.08-0.34,0.19-0.68,0.29-1.02c0.28-0.95,0.56-1.9,0.84-2.85c0.03-0.09,0.02-0.23-0.03-0.29
							C71.48,162.85,71.28,162.65,71.05,162.41z M76.74,165.43c0.74-1.1,1.48-2.19,2.22-3.29c0.04-0.06,0.06-0.18,0.04-0.24
							c-0.1-0.27-0.21-0.53-0.34-0.84c-0.09,0.13-0.14,0.22-0.2,0.3c-0.63,1.02-1.25,2.04-1.88,3.06c-0.33,0.54-0.33,0.54,0.06,0.95
							C76.67,165.4,76.69,165.41,76.74,165.43z M67.11,166.93c0.54,0.11,0.53,0.11,0.61-0.51c0.13-1.01,0.26-2.02,0.39-3.03
							c0.05-0.38,0.09-0.76,0.13-1.2c-0.28,0.15-0.49,0.28-0.71,0.38c-0.16,0.08-0.21,0.19-0.22,0.38
							c-0.03,0.65-0.07,1.31-0.11,1.96C67.17,165.59,67.14,166.26,67.11,166.93z M66.8,166.94c0.07-1.36,0.14-2.69,0.21-4.07
							c-0.29,0.16-0.53,0.27-0.76,0.42c-0.06,0.04-0.13,0.18-0.13,0.26c-0.01,1.06-0.01,2.13,0,3.19c0,0.08,0.08,0.2,0.14,0.21
							C66.43,166.97,66.6,166.95,66.8,166.94z M53.2,161.62c0.66-0.31,0.31-1.21,0.82-1.59c0.13-0.61,0.27-1.22,0.39-1.84
							c0.12-0.61,0.2-1.23,0.31-1.84c-0.48,1.21-1,2.39-1.79,3.39c-0.12,0.15-0.08,0.24,0.01,0.36
							C53.23,160.53,53.36,161.02,53.2,161.62z M71.19,167.82c0.02-0.04,0.05-0.06,0.06-0.09c0.44-1.16,0.88-2.31,1.3-3.47
							c0.03-0.07,0.01-0.21-0.03-0.26c-0.15-0.19-0.32-0.35-0.52-0.56c-0.09,0.27-0.17,0.47-0.23,0.68
							c-0.3,1.01-0.59,2.03-0.89,3.04c-0.15,0.51-0.16,0.5,0.25,0.67C71.14,167.83,71.15,167.82,71.19,167.82z M51.05,159.05
							c0.09-0.65,0.19-1.2,0.25-1.75c0.02-0.18,0.02-0.39-0.05-0.53c-0.36-0.71-0.56-1.49-0.69-2.31c-0.06-0.37-0.11-0.74-0.17-1.11
							C50.19,155.32,50.21,157.23,51.05,159.05z M50.79,162.62c-0.27-0.53-0.25-1.13-0.24-1.73c0-0.09,0.08-0.19,0.13-0.28
							c0.03,0.01,0.06,0.02,0.08,0.03c-0.04,0.92,0.65,0.99,1.1,1.33c-0.06-0.15-0.14-0.27-0.21-0.4c-0.33-0.54-0.57-1.13-0.61-1.82
							c-0.02-0.31-0.14-0.34-0.34-0.24c-0.1,0.05-0.22,0.12-0.3,0.21c-0.39,0.46-0.57,0.99-0.46,1.6
							C50.04,161.91,50.37,162.31,50.79,162.62z M72.88,164.38c-0.05,0.04-0.07,0.05-0.08,0.07c-0.42,1.11-0.84,2.23-1.25,3.35
							c-0.02,0.06,0.02,0.19,0.07,0.22c0.11,0.08,0.25,0.11,0.36,0.16c0.03-0.03,0.05-0.04,0.06-0.06c0.44-0.99,0.88-1.97,1.31-2.96
							c0.04-0.08,0.02-0.24-0.03-0.31C73.19,164.68,73.03,164.54,72.88,164.38z M74.62,158.68c-0.48,0.27-1.01,0.41-1.34,0.79
							c-0.28,0.33-0.34,0.92-0.49,1.4c0,0.01,0.02,0.04,0.03,0.05c0.21,0.25,0.42,0.5,0.67,0.79
							C73.88,160.68,74.24,159.71,74.62,158.68z M65.82,163.52c-0.25,0.14-0.45,0.23-0.63,0.36c-0.06,0.04-0.14,0.17-0.13,0.25
							c0.05,0.9,0.12,1.81,0.18,2.71c0.02,0.31,0.24,0.14,0.37,0.16c0.14,0.02,0.22-0.07,0.22-0.26c-0.01-0.28,0-0.56,0-0.85
							C65.82,165.12,65.82,164.36,65.82,163.52z M73.43,169.01c0.48-0.79,0.94-1.53,1.39-2.28c0.04-0.06,0.05-0.2,0.02-0.25
							c-0.15-0.19-0.32-0.35-0.51-0.55c-0.48,0.94-0.94,1.83-1.42,2.75C73.1,168.8,73.25,168.9,73.43,169.01z M78.26,172.09
							c-0.02,0.02-0.05,0.04-0.07,0.06c0,0.03,0.01,0.06,0.01,0.09c0.72,2.91,1.42,5.83,2.17,8.73c0.12,0.47,0.43,0.86,0.66,1.29
							c0.02-0.02,0.05-0.03,0.07-0.05c-0.15-0.47-0.31-0.93-0.44-1.4c-0.75-2.77-1.49-5.55-2.23-8.32
							C78.38,172.35,78.31,172.22,78.26,172.09z M52.59,175.1c0.02,0.03,0.03,0.06,0.05,0.08c0.4-0.29,0.85-0.5,1.18-0.87
							c1.98-2.18,3.93-4.39,5.89-6.59c0.05-0.05,0.09-0.11,0.13-0.16c-0.01-0.02-0.03-0.04-0.04-0.06c-0.1,0.08-0.22,0.14-0.31,0.24
							c-2.23,2.48-4.46,4.96-6.83,7.27C52.64,175.04,52.62,175.08,52.59,175.1z M67.4,161.4c0.33-0.18,0.6-0.32,0.86-0.49
							c0.08-0.06,0.17-0.19,0.19-0.3c0.05-0.23,0.06-0.48,0.08-0.71c0.01-0.07,0-0.17-0.03-0.21c-0.3-0.33-0.61-0.66-0.95-1.02
							C67.5,159.61,67.45,160.47,67.4,161.4z M57.74,169.29c-0.36-0.48-0.71-0.93-1.05-1.38c-0.03,0.01-0.06,0.01-0.09,0.02
							c-0.1,0.95-0.2,1.89-0.31,2.84c0.02,0.01,0.05,0.02,0.07,0.02C56.82,170.29,57.27,169.8,57.74,169.29z M51.16,163.04
							c0.56-0.24,0.56-0.24,0.87,0.26c0.24,0.38,0.48,0.76,0.72,1.15c0.08,0.12,0.16,0.23,0.23,0.35c-0.11-0.57-0.27-1.1-0.41-1.64
							c-0.12-0.48-0.31-0.83-0.77-0.97c-0.36-0.12-0.67-0.41-1-0.62c-0.03,0.01-0.05,0.03-0.08,0.04
							C50.86,162.08,51.01,162.55,51.16,163.04z M64.95,167.02c-0.07-0.96-0.13-1.91-0.2-2.9c-0.24,0.13-0.43,0.24-0.64,0.35
							c0.08,0.75,0.15,1.47,0.23,2.2c0.06,0.53,0.06,0.53,0.53,0.42C64.88,167.08,64.89,167.06,64.95,167.02z M55.11,165.36
							c-0.18,1.42-0.22,2.75,0.49,3.83c0.01-0.79-0.03-1.63,0.06-2.46C55.74,166.06,55.38,165.79,55.11,165.36z M73.69,165.26
							c-0.05,0.06-0.09,0.11-0.12,0.17c-0.39,0.89-0.79,1.78-1.17,2.67c-0.04,0.09,0,0.28,0.06,0.34c0.12,0.11,0.22,0.03,0.31-0.14
							c0.37-0.73,0.74-1.45,1.12-2.17c0.23-0.44,0.23-0.44-0.07-0.74C73.79,165.34,73.74,165.3,73.69,165.26z M75.74,167.48
							c-0.5,0.74-0.97,1.43-1.47,2.17c0.16,0.14,0.3,0.26,0.45,0.39c0.46-0.61,0.91-1.18,1.34-1.76c0.04-0.06,0.07-0.2,0.05-0.24
							C76,167.84,75.88,167.68,75.74,167.48z M64.08,167.23c-0.09-0.87-0.18-1.72-0.27-2.59c-0.21,0.11-0.38,0.19-0.54,0.3
							c-0.06,0.04-0.12,0.16-0.12,0.23c0.11,0.74,0.23,1.47,0.35,2.23C63.71,167.33,63.88,167.28,64.08,167.23z M56.66,165.92
							c0.13,0.37,0.25,0.71,0.36,1.06c0.03,0.09-0.01,0.2-0.02,0.3c-0.06-0.07-0.15-0.11-0.19-0.2c-0.13-0.35-0.23-0.72-0.39-1.05
							c-0.06-0.12-0.27-0.13-0.42-0.18c-0.03,0.12-0.11,0.25-0.09,0.34c0.03,0.11,0.15,0.17,0.21,0.27c0.19,0.33,0.36,0.69,0.57,1
							c0.29,0.43,0.61,0.83,0.91,1.24c-0.16-0.91-0.37-1.77-0.58-2.63C56.98,165.87,56.88,165.77,56.66,165.92z M51.1,151.31
							c-0.12,1.51-0.2,3.05,0.15,4.54c0.1-0.82,0.17-1.63,0.25-2.45c0.02-0.24,0.09-0.5,0.04-0.71
							C51.43,152.22,51.25,151.77,51.1,151.31z M56.06,170.79c0.01-0.04,0.03-0.08,0.03-0.13c0.12-0.98,0.24-1.96,0.35-2.94
							c0.01-0.07,0.01-0.16-0.01-0.22c-0.15-0.29-0.31-0.58-0.47-0.87c-0.02,0.01-0.05,0.02-0.07,0.04
							C55.83,168.06,55.79,169.45,56.06,170.79z M76.36,168.39c-0.49,0.64-0.95,1.24-1.42,1.86c0.15,0.15,0.27,0.27,0.41,0.41
							c0.48-0.58,0.93-1.12,1.4-1.69C76.62,168.78,76.51,168.61,76.36,168.39z M52.77,166.43c0.08,0.41,0.15,0.83,0.23,1.24
							c0.02,0.08,0.04,0.18,0.09,0.23c0.46,0.45,0.94,0.9,1.46,1.4C54.07,168.18,53.58,167.19,52.77,166.43z M75.02,167.01
							c-0.39,0.63-0.76,1.24-1.13,1.84c-0.23,0.38-0.23,0.39,0.16,0.56c0.44-0.65,0.89-1.32,1.34-1.98
							C75.27,167.28,75.16,167.16,75.02,167.01z M62.02,165.62c-0.16,0.09-0.29,0.14-0.4,0.23c-0.05,0.04-0.12,0.15-0.11,0.19
							c0.14,0.59,0.29,1.19,0.46,1.77c0.02,0.06,0.22,0.06,0.33,0.03c0.06-0.02,0.14-0.18,0.13-0.25
							C62.3,166.94,62.16,166.3,62.02,165.62z M62.76,167.64c0.17-0.06,0.3-0.11,0.44-0.16c-0.13-0.77-0.25-1.52-0.38-2.31
							c-0.2,0.12-0.36,0.2-0.52,0.3C62.46,166.19,62.61,166.9,62.76,167.64z M65.2,135.85c0.01-0.68,0.01-0.68-0.5-0.81
							c-0.07-0.02-0.15-0.02-0.21-0.06c-0.43-0.22-0.73,0.12-1.08,0.42C64.03,135.56,64.61,135.7,65.2,135.85z M76.91,169.26
							c-0.45,0.55-0.91,1.09-1.37,1.66c0.1,0.11,0.17,0.19,0.26,0.29c0.39-0.43,0.76-0.83,1.13-1.23
							C77.25,169.63,77.25,169.63,76.91,169.26z M77.41,169.93c-0.44,0.48-0.88,0.95-1.31,1.43c0.01,0.03,0.02,0.06,0.03,0.09
							c0.13-0.02,0.3,0.02,0.39-0.06c0.41-0.38,0.8-0.79,1.21-1.2C77.62,170.09,77.53,170.02,77.41,169.93z M51.58,152.2
							c0.04-0.01,0.07-0.02,0.11-0.02c0.09-0.46,0.18-0.92,0.27-1.36c-0.21-0.23-0.41-0.46-0.66-0.75
							C51.39,150.83,51.48,151.52,51.58,152.2z M72.02,129.63c-0.08-0.43-0.14-0.81-0.21-1.2c-0.02,0.02-0.04,0.04-0.05,0.05
							c-0.2,0.68-0.55,1.2-1.16,1.45c-0.09,0.04-0.15,0.21-0.23,0.32c0.02,0.02,0.03,0.04,0.05,0.06
							C70.9,129.84,71.43,129.6,72.02,129.63z M54.17,151.93c0.02,0,0.03,0,0.05,0c0.1-0.52,0.2-1.05,0.31-1.6
							c-0.24,0-0.45,0.01-0.67,0.01C53.96,150.9,54.06,151.41,54.17,151.93z M53.46,163.7c0.05-0.68,0.1-1.29,0.15-1.94
							c-0.2,0.14-0.37,0.25-0.54,0.37C53.19,162.64,53.32,163.14,53.46,163.7z M67.36,133.52c0.15-0.01,0.3-0.01,0.44-0.05
							c0.07-0.02,0.18-0.12,0.2-0.19c0.12-0.49,0.39-0.86,0.69-1.23C68.12,132.37,67.9,133.14,67.36,133.52z M54.95,172.36
							c0.17-0.18,0.29-0.31,0.43-0.46c-0.31-0.3-0.59-0.57-0.87-0.84c-0.01,0.01-0.03,0.02-0.04,0.04
							C54.62,171.5,54.78,171.91,54.95,172.36z M78.45,155.25c-0.27,0.08-0.35,0.17-0.29,0.38c0.08,0.28,0.18,0.55,0.28,0.83
							c0.12-0.03,0.22-0.06,0.29-0.08C78.63,155.99,78.54,155.62,78.45,155.25z M64.9,134.19c0.48,0.23,0.58,0.21,0.92-0.21
							C65.31,133.76,65.2,133.78,64.9,134.19z M72.78,159.7c-0.26,0.15-0.45,0.25-0.68,0.38c0.14,0.17,0.25,0.3,0.4,0.47
							C72.6,160.25,72.68,160.02,72.78,159.7z M69.16,160.41c-0.11-0.13-0.2-0.24-0.33-0.38c-0.03,0.23-0.05,0.39-0.07,0.6
							C68.91,160.55,69.02,160.49,69.16,160.41z"/>
						<path class="st22" d="M77.27,126.6c-0.38,0.04-0.76,0.05-1.14,0.11c-0.92,0.14-1.43,0.4-2.23,1.11
							c-0.24-0.74-0.49-1.49-0.73-2.24C74.53,125.92,75.9,126.26,77.27,126.6z"/>
						<path class="st22" d="M48.23,183.26c0.64,0.08,1.25,0.17,1.86,0.22c0.86,0.07,1.72-0.05,2.58-0.27
							c1.74-0.45,3.48-0.56,5.22-0.54c2.2,0.03,4.36,0.34,6.51,0.71c1.74,0.3,3.39,0.88,5.05,1.47c1.87,0.67,3.71,1.44,5.41,2.52
							c0.98,0.62,1.93,1.32,2.83,2.08c1.08,0.91,2.26,1.57,3.58,1.95c0.09,0.03,0.18,0.04,0.32,0.08c-0.08,0.1-0.13,0.17-0.19,0.23
							c-1.12,1.17-2.23,2.35-3.36,3.5c-0.45,0.47-0.99,0.53-1.53,0.43c-0.71-0.12-1.29-0.58-1.88-0.97
							c-1.68-1.1-3.42-2.06-5.25-2.83c-2.45-1.03-5.02-1.68-7.62-2.2c-3.17-0.63-6.39-0.63-9.65-0.3c-0.57,0.06-1.15,0.07-1.66-0.23
							c-0.41-0.24-0.72-0.57-0.86-1.11c-0.4-1.48-0.83-2.95-1.25-4.43C48.28,183.49,48.26,183.39,48.23,183.26z M57.42,184.62
							c-0.06,0.59-0.12,1.12-0.16,1.65c-0.01,0.07,0.07,0.2,0.11,0.2c0.33,0.02,0.67,0.04,1.01,0c0.32-0.05,0.47-0.49,0.29-0.79
							c-0.03-0.06-0.08-0.1-0.11-0.15c0.31-0.41,0.24-0.81-0.15-0.86C58.09,184.62,57.77,184.63,57.42,184.62z M72.03,189.1
							c-0.02,0-0.04-0.01-0.06-0.01c-0.04-0.3-0.05-0.61-0.13-0.88c-0.04-0.14-0.21-0.23-0.34-0.29c-0.03-0.01-0.16,0.15-0.21,0.25
							c-0.17,0.38-0.31,0.78-0.47,1.16c-0.09,0.2-0.04,0.29,0.12,0.36c0.16,0.07,0.24,0.02,0.3-0.17c0.07-0.19,0.15-0.36,0.24-0.57
							c0.22,0.43-0.07,1.15,0.62,1.23c0.2-0.5,0.41-1.02,0.6-1.54c0.02-0.06-0.08-0.21-0.16-0.25c-0.06-0.03-0.2,0.02-0.24,0.09
							C72.2,188.67,72.12,188.89,72.03,189.1z M51.65,186.1c0.07-0.33,0.16-0.56,0.14-0.76c-0.01-0.12-0.18-0.29-0.29-0.3
							c-0.37-0.01-0.74,0.06-1.13,0.1c0.02,0.51,0.04,0.96,0.06,1.4c0.02,0.51,0.04,0.53,0.5,0.34c0.01-0.22,0.01-0.45,0.02-0.68
							c0.03-0.02,0.06-0.03,0.09-0.05c0.08,0.12,0.18,0.24,0.25,0.37c0.21,0.36,0.3,0.39,0.7,0.16
							C51.85,186.45,51.72,186.22,51.65,186.1z M65.59,186.67c-0.29,1.06-0.29,1.06,0.53,1.2c0.4,0.07,0.68-0.14,0.82-0.63
							c0.18-0.6,0.09-0.96-0.3-1.13c-0.19-0.09-0.41-0.12-0.61-0.19c-0.15-0.05-0.22,0.03-0.27,0.2
							C65.7,186.33,65.62,186.55,65.59,186.67z M75.9,190.87c0.12-0.51-0.15-0.97-0.65-1.08c-0.43-0.1-0.86,0.28-0.99,0.86
							c-0.11,0.51,0.16,0.97,0.66,1.09C75.34,191.83,75.76,191.47,75.9,190.87z M74.19,189.84c0.04-0.03,0.07-0.07,0.11-0.1
							c-0.01-0.11,0-0.24-0.03-0.34c-0.2-0.59-1.05-0.7-1.42-0.17c-0.22,0.32-0.34,0.68-0.21,1.05c0.15,0.42,0.49,0.56,0.87,0.59
							c0.34,0.02,0.54-0.18,0.62-0.63c0.05-0.31-0.24-0.22-0.35-0.34c-0.03-0.03-0.08-0.07-0.12-0.06c-0.07,0.01-0.17,0.03-0.2,0.09
							c-0.03,0.06,0,0.17,0.03,0.24c0.03,0.06,0.09,0.11,0.15,0.18c-0.25,0.12-0.43,0.08-0.53-0.12c-0.13-0.26,0.01-0.51,0.16-0.72
							c0.15-0.22,0.38-0.19,0.53,0C73.91,189.64,74.06,189.73,74.19,189.84z M55.49,184.67c-0.02,0.37-0.06,0.75-0.06,1.13
							c0,0.5,0.24,0.71,0.74,0.7c0.46-0.01,0.72-0.26,0.77-0.76c0.03-0.29,0.03-0.59,0.06-0.88c0.02-0.21-0.07-0.26-0.23-0.25
							c-0.16,0-0.27,0.03-0.28,0.27c-0.01,0.28-0.01,0.57-0.07,0.85c-0.02,0.12-0.16,0.29-0.26,0.32c-0.18,0.05-0.26-0.11-0.25-0.32
							c0.01-0.22,0.03-0.44,0.04-0.65C55.99,184.58,55.96,184.55,55.49,184.67z M67.72,188.39c0.05,0.02,0.16,0.09,0.29,0.1
							c0.07,0.01,0.16-0.07,0.24-0.12c-0.04-0.1-0.05-0.23-0.12-0.28c-0.08-0.07-0.21-0.07-0.31-0.11c-0.11-0.04-0.3-0.06-0.2-0.28
							c0.03-0.06,0.2-0.08,0.3-0.08c0.11,0.01,0.21,0.09,0.32,0.1c0.06,0,0.16-0.08,0.18-0.14c0.02-0.06-0.03-0.18-0.08-0.21
							c-0.12-0.07-0.26-0.09-0.38-0.16c-0.06-0.03-0.08-0.12-0.13-0.19c0.07-0.02,0.15-0.08,0.22-0.07c0.13,0.02,0.25,0.1,0.37,0.11
							c0.08,0,0.18-0.07,0.27-0.11c-0.05-0.09-0.08-0.23-0.15-0.26c-0.26-0.12-0.54-0.19-0.81-0.29c-0.15-0.06-0.24-0.01-0.3,0.18
							c-0.07,0.24-0.15,0.48-0.23,0.72C66.94,188.15,66.94,188.15,67.72,188.39z M52.69,185.91c0.15-0.02,0.31-0.05,0.47-0.06
							c0.23-0.02,0.31-0.13,0.22-0.4c-0.19,0.02-0.37,0.05-0.56,0.04c-0.06,0-0.11-0.09-0.16-0.14c0.06-0.05,0.11-0.12,0.17-0.13
							c0.15-0.03,0.3-0.02,0.45-0.06c0.07-0.02,0.13-0.13,0.2-0.2c-0.06-0.06-0.12-0.18-0.19-0.18c-0.31,0.01-0.62,0.06-0.93,0.09
							c-0.16,0.01-0.21,0.1-0.2,0.28c0.01,0.45,0.02,0.89,0.01,1.34c0,0.21,0.07,0.26,0.24,0.23c0.28-0.04,0.56-0.06,0.84-0.09
							c0.29-0.03,0.31-0.08,0.21-0.44c-0.16,0.01-0.33,0.02-0.5,0.04C52.76,186.25,52.6,186.24,52.69,185.91z M78.21,193.79
							c0.12-0.65,0.24-1.24,0.34-1.83c0.03-0.19-0.35-0.46-0.49-0.33c-0.43,0.38-0.84,0.78-1.29,1.2c0.21,0.15,0.33,0.36,0.6,0.14
							c0.07-0.05,0.43,0.19,0.42,0.29C77.78,193.62,78,193.64,78.21,193.79z M64.46,187.41c-0.05-0.56-0.1-1.06-0.13-1.57
							c-0.01-0.26-0.09-0.39-0.32-0.44c-0.24-0.06-0.32,0.11-0.42,0.28c-0.16,0.27-0.32,0.54-0.47,0.81
							c-0.1,0.17-0.19,0.35-0.29,0.53c0.34,0.14,0.32,0.09,0.57-0.03c0.16-0.07,0.51-0.02,0.53,0.08
							C63.99,187.41,64.2,187.36,64.46,187.41z M70.58,189.49c0.03-0.65,0.06-1.23,0.08-1.82c0-0.22-0.42-0.4-0.55-0.24
							c-0.37,0.44-0.72,0.91-1.08,1.37c0.27,0.23,0.3,0.17,0.56,0.09c0.16-0.05,0.49,0.08,0.51,0.2
							C70.15,189.43,70.35,189.4,70.58,189.49z M62.79,186.45c-0.14-0.05-0.24-0.33-0.44-0.06c-0.14,0.18-0.31,0.19-0.42,0.05
							c-0.17-0.21-0.1-0.5,0.03-0.73c0.07-0.11,0.25-0.13,0.38-0.18c0.02-0.01,0.07,0.03,0.09,0.07c0.11,0.28,0.3,0.19,0.49,0.13
							c-0.05-0.48-0.33-0.71-0.79-0.67c-0.41,0.03-0.68,0.35-0.76,0.87c-0.08,0.56,0.1,0.91,0.53,1.02
							C62.34,187.05,62.62,186.9,62.79,186.45z M53.77,186.58c0.19-0.03,0.39-0.01,0.43-0.09c0.08-0.18,0.09-0.41,0.12-0.62
							c0.17-0.04,0.33-0.05,0.48-0.11c0.24-0.09,0.35-0.31,0.35-0.59c0-0.28-0.11-0.47-0.34-0.48c-0.32-0.02-0.64,0.01-0.99,0.02
							C53.8,185.36,53.79,185.94,53.77,186.58z M76.44,190.52c-0.25,0.5-0.5,0.98-0.74,1.47c-0.02,0.05,0,0.18,0.04,0.21
							c0.31,0.21,0.63,0.39,0.96,0.6c0.08-0.16,0.13-0.27,0.19-0.4c-0.22-0.15-0.42-0.29-0.62-0.43c0.15-0.3,0.28-0.56,0.41-0.82
							C76.9,190.71,76.89,190.7,76.44,190.52z M58.94,186.55c0.39,0.04,0.73,0.08,1.07,0.1c0.06,0,0.18-0.13,0.19-0.2
							c0.01-0.07-0.06-0.2-0.13-0.23c-0.1-0.05-0.22-0.05-0.33-0.04c-0.2,0.01-0.26-0.09-0.22-0.32c0.05-0.29,0.08-0.59,0.12-0.88
							c0.02-0.16-0.03-0.25-0.18-0.24c-0.12,0.01-0.27-0.06-0.31,0.18C59.1,185.44,59.02,185.97,58.94,186.55z M60.92,186.72
							c0.09-0.51,0.16-1.01,0.25-1.51c0.03-0.19,0.03-0.32-0.17-0.33c-0.17-0.02-0.29,0.01-0.32,0.25
							c-0.05,0.37-0.11,0.74-0.17,1.11C60.42,186.75,60.42,186.75,60.92,186.72z M56.65,184.17c-0.33-0.09-0.46,0.01-0.47,0.36
							C56.32,184.42,56.45,184.32,56.65,184.17z"/>
						<path class="st22" d="M71.08,147.06c0.13-0.25,0.22-0.41,0.31-0.58c0.63-1.12,1.26-2.25,1.91-3.37c0.14-0.25,0.15-0.4,0-0.62
							c-0.82-1.15-1.61-2.31-2.45-3.52c0.11,0.02,0.18,0.02,0.24,0.04c1.17,0.3,2.34,0.59,3.51,0.91c0.26,0.07,0.39-0.02,0.53-0.27
							c0.7-1.26,1.42-2.51,2.14-3.77c0.04-0.07,0.09-0.15,0.18-0.3c0.01,0.18,0.01,0.29,0.01,0.4c0.03,1.39,0.06,2.78,0.08,4.17
							c0,0.27,0.08,0.4,0.31,0.45c1.28,0.31,2.56,0.63,3.92,0.97c-0.15,0.09-0.23,0.14-0.31,0.18c-1.14,0.57-2.27,1.14-3.41,1.7
							c-0.25,0.12-0.33,0.25-0.32,0.55c0.04,1.45,0.06,2.91,0.09,4.36c0,0.08,0,0.17-0.01,0.31c-0.09-0.11-0.14-0.18-0.2-0.26
							c-0.73-1.05-1.47-2.09-2.2-3.16c-0.14-0.2-0.26-0.22-0.47-0.11c-1.16,0.59-2.32,1.16-3.49,1.74
							C71.35,146.94,71.26,146.98,71.08,147.06z"/>
						<path class="st22" d="M66.46,151.18c0,0.2-0.01,0.41-0.01,0.61c0.02,1.26,0.45,2.33,1.11,3.22c0.84,1.13,1.74,2.21,2.64,3.28
							c1.87,2.23,3.75,4.43,5.63,6.65c0.07,0.08,0.13,0.17,0.21,0.27c-0.31,0.38-0.6,0.74-0.9,1.12c-0.65-0.7-1.3-1.38-1.94-2.07
							c-2.32-2.49-4.64-4.99-6.98-7.46c-1.03-1.09-1.29-2.63-0.55-4.25c0.22-0.48,0.49-0.94,0.73-1.4
							C66.42,151.16,66.44,151.17,66.46,151.18z"/>
						<path class="st22" d="M91.04,173.73c-0.07,1.32-0.24,2.69-0.66,4.02c-0.55,1.75-1.6,3.01-2.86,4.14
							c-1.06,0.94-2.23,1.61-3.36,2.38c-0.23,0.15-0.48,0.24-0.72,0.36c0.02,0.06,0.04,0.11,0.06,0.17
							c-0.03-0.08-0.07-0.16-0.1-0.25c-0.23-0.72-0.44-1.44-0.68-2.15c-0.07-0.22-0.05-0.33,0.13-0.48
							c0.84-0.64,1.68-1.28,2.49-1.97c1.54-1.3,2.84-2.86,3.75-4.83c0.1-0.22,0.19-0.44,0.27-0.67c0.08-0.22,0.15-0.43,0.23-0.65
							c0.02,0,0.05,0,0.07,0c-0.06,0.46-0.11,0.93-0.19,1.39c-0.06,0.32-0.17,0.64-0.23,0.97c-0.02,0.12,0.02,0.26,0.04,0.39
							c0.1-0.07,0.23-0.12,0.28-0.21C90.07,175.47,90.56,174.59,91.04,173.73z"/>
						<path class="st22" d="M65.93,183.19c0.69-1.77,1.9-2.42,3.36-2.61c1.14-0.15,2.25,0.02,3.36,0.22c2.19,0.4,4.37,0.83,6.64,0.7
							c0.09-0.01,0.19,0.01,0.28-0.02c0.52-0.19,0.83,0.07,1.06,0.56c0.15,0.32,0.37,0.59,0.59,0.94
							C76.1,183.05,71.03,183.12,65.93,183.19z"/>
						<path class="st22" d="M65.49,183.07c-4.48-2.45-8.92-4.88-13.39-7.32c0.52-0.3,1-0.59,1.49-0.86c0.08-0.04,0.2-0.01,0.28,0.04
							c1.35,0.93,2.82,1.57,4.35,2.08c1.14,0.38,2.28,0.73,3.41,1.13c0.99,0.35,1.94,0.81,2.74,1.56
							C65.29,180.58,65.67,181.68,65.49,183.07z"/>
						<path class="st22" d="M48.46,163.72c-0.07,0.81-0.14,1.67-0.2,2.53c-0.01,0.17,0.03,0.33,0.09,0.51
							c0.41-0.89,0.79-1.79,1.43-2.61c-0.08,0.41-0.14,0.73-0.22,1.06c-0.4,1.72-0.22,3.34,0.32,4.87c0.42,1.18,0.94,2.31,1.41,3.46
							c0.12,0.29,0.25,0.56,0.39,0.88c-0.67,0.67-1.34,1.32-1.96,1.94c-0.54-0.97-1.13-1.9-1.61-2.91
							c-0.67-1.43-1.25-2.92-1.14-4.68c0.08-1.29,0.45-2.51,0.92-3.7C48.08,164.6,48.29,164.13,48.46,163.72z"/>
						<path class="st22" d="M84.22,186.12c0.55,0.29,1.09,0.54,1.6,0.85c0.25,0.15,0.47,0.39,0.64,0.66
							c0.35,0.54,0.23,1.16-0.26,1.62c-0.38,0.35-0.82,0.5-1.27,0.59c-0.93,0.19-1.83,0.11-2.73-0.02
							c-0.11-0.02-0.21-0.12-0.29-0.21c-0.48-0.62-1.06-1.08-1.65-1.56c-0.4-0.33-0.73-0.77-1.05-1.2c-0.2-0.27-0.26-0.64-0.13-1.05
							c0.48,0.12,0.95,0.23,1.41,0.35c0.77,0.21,1.53,0.44,2.31,0.63C83.33,186.9,83.82,186.74,84.22,186.12z"/>
						<path class="st22" d="M48.4,177.27c0.07,0.88,0.62,1.15,1.24,1.29c1.04,0.23,2.09,0.43,3.14,0.65
							c0.33,0.07,0.4,0.22,0.16,0.52c-0.2,0.26-0.46,0.53-0.73,0.64c-0.55,0.23-1.12,0.35-1.68,0.51c-0.45,0.13-0.91,0.22-1.35,0.38
							c-0.37,0.14-0.71,0.22-1.08,0.06c-0.81-0.35-1.61-0.68-2.27-1.33c-0.24-0.23-0.45-0.52-0.6-0.84
							c-0.32-0.69-0.05-1.4,0.61-1.72c0.59-0.28,1.18-0.25,1.78-0.22C47.87,177.21,48.12,177.25,48.4,177.27z"/>
						<path class="st22" d="M55.09,162.36c0.35-0.14,0.42-0.1,0.44,0.28c0.06,1.02,0.12,2.05,0.17,3.04
							c-0.19-0.12-0.46-0.56-0.57-0.98c-0.12-0.48-0.22-0.97-0.35-1.45c-0.02-0.08-0.11-0.12-0.16-0.18
							c-0.02,0.08-0.07,0.19-0.05,0.25c0.42,1.28,0.23,2.64,0.17,3.99c-0.01,0.2,0.02,0.41,0.08,0.59c0.25,0.74,0.53,1.47,0.78,2.2
							c0.08,0.22,0.12,0.46,0.18,0.69c-0.03,0.02-0.06,0.04-0.08,0.07c-0.17-0.24-0.37-0.46-0.5-0.73
							c-0.33-0.65-0.63-1.33-0.95-1.99c-0.38-0.8-0.86-1.51-1.45-2.1c-0.09-0.09-0.16-0.23-0.21-0.36
							c-0.21-0.59-0.41-1.18-0.62-1.76c-0.04-0.11-0.15-0.18-0.22-0.27c0.01,0.13-0.01,0.28,0.02,0.4c0.21,0.63,0.46,1.25,0.65,1.89
							c0.15,0.52,0.24,1.06,0.36,1.61c-0.37-0.01-0.57-0.69-1-0.11c-0.24-0.58-0.47-1.12-0.69-1.66c-0.18-0.44-0.36-0.88-0.55-1.31
							c-0.2-0.47-0.17-0.55,0.28-0.87c0.18,0.52,0.35,1.04,0.54,1.56c0.04,0.1,0.13,0.16,0.2,0.24c0.01-0.11,0.04-0.24,0.01-0.33
							c-0.17-0.54-0.36-1.07-0.56-1.65c0.17-0.09,0.34-0.21,0.51-0.26c0.07-0.02,0.19,0.08,0.25,0.16c0.77,1.22,1.54,2.44,2.3,3.66
							c0.03,0.05,0.06,0.11,0.1,0.15c0.04,0.04,0.13,0.09,0.15,0.07c0.05-0.05,0.1-0.14,0.1-0.21c-0.02-0.27-0.06-0.53-0.09-0.8
							c-0.12-1.04-0.12-2.09,0.02-3.16c0.01-0.09,0.04-0.17,0.05-0.26c0.03-0.21,0.12-0.39,0.31-0.36c0.09,0.02,0.17,0.2,0.21,0.33
							c0.09,0.37,0.15,0.75,0.23,1.12c0.02,0.07,0.1,0.11,0.15,0.17c0.02-0.08,0.08-0.17,0.07-0.24
							C55.28,163.31,55.18,162.85,55.09,162.36z"/>
						<path class="st22" d="M79.27,161.78c-0.36-0.89-0.7-1.72-1.03-2.55c-0.04-0.1-0.04-0.25-0.02-0.37
							c0.11-0.54,0.24-1.08,0.34-1.62c0.05-0.3,0.16-0.52,0.42-0.62c0.07-0.03,0.14-0.08,0.21-0.11c-0.13-0.24-0.27-0.44-0.36-0.67
							c-0.09-0.22-0.15-0.46,0-0.71c0.39,0.06,0.49,0.32,0.41,1.17c0.26,0.06,0.53,0.11,0.79,0.2c0.1,0.03,0.2,0.14,0.23,0.25
							c0.24,0.78,0.46,1.57,0.69,2.36c0.02,0.08,0.02,0.2-0.02,0.26C80.38,160.17,79.84,160.95,79.27,161.78z"/>
						<path class="st22" d="M51.67,156.07c0.14,0.83,0.3,1.65,0.4,2.49c0.08,0.66,0.22,1.24,0.65,1.7c0.32,0.34,0.42,0.82,0.23,1.34
							c-0.14,0.4-0.11,0.75,0,1.13c0.16,0.53,0.25,1.09,0.38,1.64c0.03,0.12,0.1,0.22,0.15,0.33c0.05-0.13,0.14-0.25,0.15-0.38
							c0.11-1.22,0.21-2.44,0.29-3.67c0.02-0.22,0.09-0.37,0.26-0.36c0.09,0,0.16,0.16,0.24,0.26c0.02,0.03,0.01,0.09,0.04,0.12
							c0.04,0.05,0.1,0.08,0.15,0.12c0.02-0.07,0.06-0.15,0.06-0.22c0-0.09-0.04-0.19-0.07-0.35c0.14-0.01,0.29-0.08,0.37-0.02
							c0.08,0.05,0.12,0.23,0.11,0.35c-0.02,0.44-0.07,0.87-0.12,1.31c-0.01,0.09-0.07,0.19-0.1,0.28
							c-0.11-0.05-0.27-0.07-0.32-0.16c-0.14-0.26-0.22-0.56-0.35-0.83c-0.03-0.07-0.12-0.1-0.19-0.15c0,0.09-0.03,0.2-0.01,0.28
							c0.16,0.48,0.36,0.87,0.19,1.51c-0.31,1.17-0.21,2.37-0.11,3.56c-0.28-0.4-0.64-0.73-0.79-1.26c-0.24-0.85-0.47-1.7-0.73-2.54
							c-0.07-0.22-0.2-0.42-0.34-0.6c-0.64-0.79-1.08-1.69-0.97-2.87c0.06-0.63,0.19-1.26,0.27-1.89c0.04-0.37,0.04-0.74,0.05-1.11
							C51.62,156.08,51.65,156.08,51.67,156.07z"/>
						<path class="st22" d="M51.44,168.23c0.06,0.09,0.13,0.17,0.19,0.26c0.62,0.88,1.23,1.75,1.86,2.62
							c0.05,0.07,0.15,0.09,0.23,0.13c-0.02-0.1-0.01-0.22-0.06-0.29c-0.62-0.89-1.24-1.77-1.87-2.66c-0.07-0.1-0.13-0.19-0.19-0.29
							c0.35-0.52,0.43-0.54,0.83-0.27c1.05,0.69,1.88,1.64,2.64,2.71c0.23,0.32,0.47,0.63,0.72,0.96c-0.1,0.1-0.18,0.19-0.28,0.3
							c-0.62-0.62-1.32-1.11-1.67-2.02c-0.14-0.37-0.34-0.7-0.52-1.04c-0.04-0.07-0.13-0.09-0.2-0.14c0,0.09-0.03,0.21,0.01,0.27
							c0.55,1.09,1.11,2.17,1.51,3.37c0.04,0.11,0.08,0.21,0.12,0.34c-0.07,0.08-0.13,0.15-0.22,0.25
							c-0.58-0.61-1.14-1.21-1.71-1.81c-0.48-0.51-0.96-1.02-1.44-1.53C51.05,169.03,51.05,168.73,51.44,168.23z"/>
						<path class="st22" d="M54.6,151.87c0.01,0.84-0.03,1.69,0.03,2.53c0.11,1.77-0.7,3.19-1.53,4.6
							c-0.13,0.22-0.29,0.42-0.47,0.67c-0.08-0.24-0.16-0.43-0.21-0.63c-0.02-0.08,0.02-0.21,0.06-0.29c0.83-1.43,1.32-3,1.63-4.63
							c0.14-0.75,0.29-1.49,0.43-2.24C54.56,151.87,54.58,151.87,54.6,151.87z"/>
						<path class="st22" d="M53.2,161.62c0.16-0.6,0.03-1.09-0.27-1.52c-0.08-0.12-0.12-0.21-0.01-0.36c0.79-1,1.31-2.18,1.79-3.39
							c-0.1,0.61-0.19,1.23-0.31,1.84c-0.12,0.62-0.26,1.23-0.39,1.84C53.52,160.42,53.86,161.31,53.2,161.62z"/>
						<path class="st22" d="M51.05,159.05c-0.85-1.81-0.86-3.73-0.65-5.7c0.06,0.37,0.11,0.74,0.17,1.11
							c0.13,0.82,0.33,1.6,0.69,2.31c0.07,0.14,0.07,0.35,0.05,0.53C51.24,157.85,51.15,158.4,51.05,159.05z"/>
						<path class="st22" d="M50.79,162.62c-0.43-0.31-0.75-0.71-0.85-1.3c-0.11-0.61,0.07-1.14,0.46-1.6
							c0.08-0.09,0.19-0.16,0.3-0.21c0.2-0.1,0.33-0.07,0.34,0.24c0.04,0.69,0.28,1.28,0.61,1.82c0.08,0.13,0.16,0.25,0.21,0.4
							c-0.46-0.34-1.14-0.41-1.1-1.33c-0.03-0.01-0.06-0.02-0.08-0.03c-0.04,0.09-0.12,0.19-0.13,0.28
							C50.54,161.49,50.52,162.09,50.79,162.62z"/>
						<path class="st22" d="M78.26,172.09c0.05,0.13,0.12,0.26,0.16,0.39c0.75,2.77,1.49,5.55,2.23,8.32
							c0.13,0.48,0.29,0.93,0.44,1.4c-0.02,0.02-0.05,0.03-0.07,0.05c-0.22-0.43-0.53-0.82-0.66-1.29c-0.75-2.9-1.45-5.81-2.17-8.73
							c-0.01-0.03-0.01-0.06-0.01-0.09C78.21,172.13,78.23,172.11,78.26,172.09z"/>
						<path class="st22" d="M52.59,175.1c0.02-0.03,0.04-0.06,0.07-0.09c2.37-2.3,4.6-4.78,6.83-7.27c0.09-0.1,0.21-0.16,0.31-0.24
							c0.01,0.02,0.03,0.04,0.04,0.06c-0.04,0.05-0.08,0.11-0.13,0.16c-1.96,2.2-3.91,4.41-5.89,6.59
							c-0.33,0.37-0.78,0.58-1.18,0.87C52.62,175.16,52.61,175.13,52.59,175.1z"/>
						<path class="st22" d="M51.16,163.04c-0.15-0.5-0.3-0.97-0.44-1.44c0.03-0.01,0.05-0.03,0.08-0.04c0.33,0.21,0.64,0.5,1,0.62
							c0.46,0.15,0.65,0.5,0.77,0.97c0.14,0.54,0.3,1.07,0.41,1.64c-0.08-0.12-0.16-0.23-0.23-0.35c-0.24-0.38-0.48-0.76-0.72-1.15
							C51.72,162.81,51.72,162.81,51.16,163.04z"/>
						<path class="st22" d="M55.11,165.36c0.27,0.43,0.63,0.7,0.55,1.37c-0.1,0.83-0.05,1.67-0.06,2.46
							C54.89,168.11,54.93,166.77,55.11,165.36z"/>
						<path class="st22" d="M56.66,165.92c0.22-0.15,0.32-0.05,0.38,0.16c0.21,0.86,0.42,1.72,0.58,2.63
							c-0.31-0.41-0.63-0.81-0.91-1.24c-0.21-0.31-0.37-0.67-0.57-1c-0.06-0.1-0.19-0.16-0.21-0.27c-0.02-0.09,0.06-0.23,0.09-0.34
							c0.14,0.06,0.36,0.06,0.42,0.18c0.16,0.32,0.25,0.7,0.39,1.05c0.03,0.08,0.12,0.13,0.19,0.2c0.01-0.1,0.04-0.22,0.02-0.3
							C56.91,166.63,56.79,166.29,56.66,165.92z"/>
						<path class="st22" d="M51.1,151.31c0.15,0.46,0.32,0.91,0.44,1.38c0.05,0.21-0.02,0.47-0.04,0.71
							c-0.07,0.82-0.15,1.63-0.25,2.45C50.9,154.36,50.98,152.82,51.1,151.31z"/>
						<path class="st22" d="M56.06,170.79c-0.27-1.34-0.22-2.73-0.17-4.11c0.02-0.01,0.05-0.02,0.07-0.04
							c0.16,0.29,0.32,0.57,0.47,0.87c0.03,0.06,0.02,0.15,0.01,0.22c-0.12,0.98-0.23,1.96-0.35,2.94
							C56.08,170.71,56.07,170.75,56.06,170.79z"/>
						<path class="st22" d="M52.77,166.43c0.81,0.75,1.3,1.75,1.78,2.86c-0.53-0.5-1-0.94-1.46-1.4c-0.05-0.05-0.07-0.14-0.09-0.23
							C52.92,167.26,52.85,166.85,52.77,166.43z"/>
						<path class="st22" d="M65.2,135.85c-0.6-0.15-1.18-0.29-1.79-0.45c0.35-0.3,0.65-0.63,1.08-0.42
							c0.07,0.03,0.14,0.04,0.21,0.06C65.22,135.17,65.22,135.17,65.2,135.85z"/>
						<path class="st22" d="M51.58,152.2c-0.09-0.68-0.19-1.37-0.29-2.13c0.26,0.29,0.45,0.51,0.66,0.75
							c-0.09,0.44-0.18,0.9-0.27,1.36C51.65,152.18,51.61,152.19,51.58,152.2z"/>
						<path class="st22" d="M72.02,129.63c-0.59-0.03-1.12,0.21-1.6,0.68c-0.02-0.02-0.03-0.04-0.05-0.06
							c0.08-0.11,0.14-0.29,0.23-0.32c0.62-0.25,0.96-0.77,1.16-1.45c0.01-0.02,0.03-0.03,0.05-0.05
							C71.88,128.81,71.95,129.2,72.02,129.63z"/>
						<path class="st22" d="M54.17,151.93c-0.1-0.52-0.2-1.03-0.31-1.59c0.22,0,0.43-0.01,0.67-0.01c-0.11,0.55-0.21,1.07-0.31,1.6
							C54.2,151.93,54.18,151.93,54.17,151.93z"/>
						<path class="st22" d="M53.46,163.7c-0.14-0.57-0.27-1.06-0.39-1.57c0.18-0.12,0.34-0.23,0.54-0.37
							C53.56,162.41,53.51,163.02,53.46,163.7z"/>
						<path class="st22" d="M67.36,133.52c0.53-0.38,0.75-1.16,1.33-1.47c-0.3,0.36-0.57,0.74-0.69,1.23
							c-0.02,0.08-0.12,0.17-0.2,0.19C67.66,133.51,67.51,133.51,67.36,133.52z"/>
						<path class="st22" d="M54.95,172.36c-0.17-0.45-0.32-0.86-0.48-1.26c0.01-0.01,0.03-0.02,0.04-0.04
							c0.28,0.27,0.56,0.54,0.87,0.84C55.24,172.05,55.11,172.18,54.95,172.36z"/>
						<path class="st22" d="M78.45,155.25c0.09,0.37,0.18,0.74,0.28,1.14c-0.06,0.02-0.17,0.05-0.29,0.08
							c-0.1-0.29-0.2-0.56-0.28-0.83C78.09,155.42,78.18,155.33,78.45,155.25z"/>
						<path class="st22" d="M64.9,134.19c0.3-0.4,0.41-0.43,0.92-0.21C65.48,134.4,65.39,134.42,64.9,134.19z"/>
						<path class="st23" d="M57.42,184.62c0.36,0.02,0.67,0.01,0.98,0.05c0.39,0.05,0.46,0.45,0.15,0.86
							c0.04,0.05,0.08,0.1,0.11,0.15c0.18,0.3,0.03,0.74-0.29,0.79c-0.33,0.05-0.67,0.02-1.01,0c-0.05,0-0.12-0.13-0.11-0.2
							C57.3,185.73,57.36,185.2,57.42,184.62z M57.88,186.17c0.15-0.09,0.25-0.16,0.35-0.22c-0.05-0.07-0.09-0.2-0.14-0.2
							c-0.09-0.01-0.19,0.07-0.28,0.11C57.82,185.94,57.84,186.02,57.88,186.17z M58.24,185.28c0.01-0.03,0.01-0.06,0.02-0.09
							c-0.05-0.05-0.11-0.14-0.16-0.14c-0.08,0-0.16,0.07-0.24,0.11c0.04,0.07,0.07,0.18,0.12,0.18
							C58.06,185.36,58.15,185.31,58.24,185.28z"/>
						<path class="st23" d="M72.03,189.1c0.09-0.21,0.16-0.43,0.27-0.63c0.04-0.06,0.18-0.12,0.24-0.09
							c0.08,0.04,0.18,0.19,0.16,0.25c-0.19,0.52-0.4,1.04-0.6,1.54c-0.69-0.07-0.4-0.8-0.62-1.23c-0.09,0.21-0.18,0.39-0.24,0.57
							c-0.06,0.18-0.14,0.24-0.3,0.17c-0.16-0.07-0.21-0.16-0.12-0.36c0.16-0.38,0.3-0.78,0.47-1.16c0.04-0.1,0.18-0.27,0.21-0.25
							c0.13,0.07,0.3,0.16,0.34,0.29c0.08,0.27,0.09,0.59,0.13,0.88C71.99,189.09,72.01,189.09,72.03,189.1z"/>
						<path class="st23" d="M51.65,186.1c0.07,0.13,0.2,0.35,0.33,0.58c-0.4,0.23-0.49,0.2-0.7-0.16c-0.08-0.13-0.17-0.25-0.25-0.37
							c-0.03,0.02-0.06,0.03-0.09,0.05c-0.01,0.23-0.01,0.46-0.02,0.68c-0.46,0.19-0.47,0.17-0.5-0.34
							c-0.02-0.44-0.04-0.88-0.06-1.4c0.39-0.04,0.76-0.1,1.13-0.1c0.11,0,0.28,0.17,0.29,0.3
							C51.81,185.54,51.72,185.77,51.65,186.1z M50.93,185.42c-0.02,0.03-0.04,0.06-0.06,0.08c0.03,0.09,0.05,0.25,0.11,0.27
							c0.08,0.03,0.19-0.04,0.28-0.09c0.03-0.01,0.04-0.16,0.03-0.17C51.18,185.47,51.05,185.45,50.93,185.42z"/>
						<path class="st23" d="M65.59,186.67c0.04-0.12,0.11-0.34,0.17-0.56c0.05-0.17,0.11-0.25,0.27-0.2c0.2,0.07,0.41,0.1,0.61,0.19
							c0.39,0.17,0.48,0.53,0.3,1.13c-0.15,0.49-0.42,0.7-0.82,0.63C65.3,187.72,65.3,187.72,65.59,186.67z M65.94,187.33
							c0.01,0.04,0.03,0.08,0.04,0.12c0.13-0.05,0.34-0.06,0.37-0.15c0.09-0.22,0.11-0.47,0.13-0.71c0-0.05-0.14-0.12-0.22-0.12
							c-0.05,0-0.13,0.12-0.15,0.2C66.04,186.88,65.99,187.1,65.94,187.33z"/>
						<path class="st23" d="M75.9,190.87c-0.14,0.6-0.56,0.96-0.99,0.86c-0.5-0.12-0.77-0.58-0.66-1.09
							c0.13-0.58,0.56-0.95,0.99-0.86C75.75,189.9,76.02,190.36,75.9,190.87z M75.42,190.76c0.07-0.25,0.01-0.44-0.17-0.5
							c-0.2-0.07-0.43,0.15-0.53,0.5c-0.06,0.24,0,0.41,0.2,0.48C75.11,191.32,75.32,191.11,75.42,190.76z"/>
						<path class="st23" d="M74.19,189.84c-0.13-0.11-0.28-0.2-0.39-0.34c-0.15-0.19-0.38-0.22-0.53,0
							c-0.15,0.21-0.28,0.47-0.16,0.72c0.1,0.2,0.28,0.24,0.53,0.12c-0.07-0.08-0.13-0.12-0.15-0.18c-0.03-0.07-0.06-0.18-0.03-0.24
							c0.03-0.05,0.13-0.08,0.2-0.09c0.04-0.01,0.09,0.02,0.12,0.06c0.11,0.12,0.4,0.04,0.35,0.34c-0.08,0.45-0.28,0.66-0.62,0.63
							c-0.38-0.03-0.72-0.17-0.87-0.59c-0.13-0.37-0.01-0.73,0.21-1.05c0.37-0.52,1.22-0.42,1.42,0.17c0.03,0.1,0.02,0.22,0.03,0.34
							C74.26,189.77,74.23,189.81,74.19,189.84z"/>
						<path class="st23" d="M55.49,184.67c0.47-0.12,0.5-0.09,0.47,0.39c-0.01,0.22-0.03,0.44-0.04,0.65
							c-0.01,0.21,0.07,0.37,0.25,0.32c0.1-0.03,0.24-0.19,0.26-0.32c0.06-0.28,0.06-0.57,0.07-0.85c0-0.24,0.11-0.27,0.28-0.27
							c0.16,0,0.24,0.04,0.23,0.25c-0.03,0.29-0.03,0.59-0.06,0.88c-0.05,0.49-0.32,0.74-0.77,0.76c-0.5,0.01-0.74-0.2-0.74-0.7
							C55.43,185.42,55.47,185.04,55.49,184.67z"/>
						<path class="st23" d="M67.72,188.39c-0.78-0.24-0.78-0.24-0.53-1.07c0.08-0.24,0.16-0.48,0.23-0.72
							c0.05-0.2,0.14-0.24,0.3-0.18c0.27,0.1,0.55,0.17,0.81,0.29c0.07,0.03,0.1,0.17,0.15,0.26c-0.09,0.04-0.18,0.12-0.27,0.11
							c-0.13-0.01-0.25-0.09-0.37-0.11c-0.07-0.01-0.14,0.04-0.22,0.07c0.04,0.06,0.07,0.15,0.13,0.19
							c0.12,0.07,0.27,0.09,0.38,0.16c0.05,0.03,0.1,0.15,0.08,0.21c-0.02,0.06-0.12,0.14-0.18,0.14c-0.11-0.01-0.21-0.09-0.32-0.1
							c-0.1-0.01-0.27,0.01-0.3,0.08c-0.1,0.22,0.09,0.23,0.2,0.28c0.1,0.04,0.23,0.04,0.31,0.11c0.07,0.05,0.08,0.19,0.12,0.28
							c-0.08,0.04-0.17,0.12-0.24,0.12C67.89,188.48,67.77,188.41,67.72,188.39z"/>
						<path class="st23" d="M52.69,185.91c-0.09,0.34,0.06,0.35,0.26,0.32c0.17-0.02,0.34-0.03,0.5-0.04
							c0.1,0.35,0.08,0.4-0.21,0.44c-0.28,0.03-0.56,0.05-0.84,0.09c-0.17,0.02-0.24-0.03-0.24-0.23c0.01-0.45,0-0.89-0.01-1.34
							c0-0.18,0.04-0.27,0.2-0.28c0.31-0.03,0.62-0.07,0.93-0.09c0.07,0,0.13,0.12,0.19,0.18c-0.07,0.07-0.13,0.18-0.2,0.2
							c-0.15,0.04-0.3,0.03-0.45,0.06c-0.06,0.01-0.11,0.08-0.17,0.13c0.05,0.05,0.1,0.14,0.16,0.14c0.18,0,0.37-0.03,0.56-0.04
							c0.09,0.27,0.01,0.39-0.22,0.4C53,185.86,52.85,185.89,52.69,185.91z"/>
						<path class="st23" d="M78.21,193.79c-0.22-0.15-0.44-0.17-0.42-0.53c0.01-0.11-0.36-0.35-0.42-0.29
							c-0.27,0.22-0.39,0.01-0.6-0.14c0.44-0.42,0.86-0.82,1.29-1.2c0.14-0.12,0.52,0.14,0.49,0.33
							C78.45,192.55,78.33,193.14,78.21,193.79z M78.07,192.27c-0.02-0.01-0.03-0.03-0.05-0.04c-0.1,0.11-0.2,0.22-0.33,0.36
							c0.1,0.06,0.17,0.11,0.26,0.16C77.99,192.56,78.03,192.42,78.07,192.27z"/>
						<path class="st23" d="M64.46,187.41c-0.25-0.05-0.46,0.01-0.54-0.33c-0.02-0.1-0.37-0.15-0.53-0.08
							c-0.24,0.11-0.23,0.17-0.57,0.03c0.1-0.18,0.2-0.36,0.29-0.53c0.16-0.27,0.31-0.54,0.47-0.81c0.1-0.18,0.18-0.34,0.42-0.28
							c0.23,0.06,0.31,0.18,0.32,0.44C64.36,186.35,64.41,186.85,64.46,187.41z M63.94,186.55c-0.01-0.2-0.01-0.35-0.02-0.5
							c-0.02,0-0.04,0-0.07-0.01c-0.06,0.14-0.13,0.27-0.2,0.43C63.75,186.5,63.82,186.52,63.94,186.55z"/>
						<path class="st23" d="M70.58,189.49c-0.23-0.1-0.44-0.06-0.48-0.4c-0.02-0.12-0.35-0.25-0.51-0.2
							c-0.26,0.08-0.29,0.14-0.56-0.09c0.36-0.46,0.71-0.93,1.08-1.37c0.14-0.16,0.56,0.02,0.55,0.24
							C70.65,188.26,70.61,188.84,70.58,189.49z M70.24,188.01c-0.02-0.01-0.03-0.01-0.05-0.02c-0.09,0.13-0.18,0.27-0.29,0.43
							c0.1,0.05,0.17,0.08,0.28,0.12C70.2,188.34,70.22,188.18,70.24,188.01z"/>
						<path class="st23" d="M62.79,186.45c-0.17,0.46-0.45,0.61-0.89,0.49c-0.42-0.11-0.61-0.46-0.53-1.02
							c0.07-0.52,0.35-0.84,0.76-0.87c0.46-0.04,0.74,0.2,0.79,0.67c-0.19,0.06-0.38,0.15-0.49-0.13c-0.01-0.03-0.06-0.08-0.09-0.07
							c-0.13,0.05-0.32,0.07-0.38,0.18c-0.13,0.22-0.2,0.51-0.03,0.73c0.11,0.14,0.29,0.13,0.42-0.05
							C62.55,186.12,62.64,186.39,62.79,186.45z"/>
						<path class="st23" d="M53.77,186.58c0.02-0.64,0.03-1.23,0.05-1.88c0.34-0.01,0.67-0.03,0.99-0.02
							c0.24,0.01,0.34,0.21,0.34,0.48c0,0.29-0.1,0.5-0.35,0.59c-0.15,0.06-0.31,0.07-0.48,0.11c-0.04,0.21-0.04,0.43-0.12,0.62
							C54.17,186.57,53.96,186.55,53.77,186.58z M54.38,185.02c-0.02,0.03-0.05,0.06-0.07,0.09c0,0.12,0.01,0.23,0.01,0.35
							c0.03,0.02,0.06,0.03,0.09,0.05c0.08-0.09,0.16-0.19,0.25-0.28C54.56,185.16,54.47,185.09,54.38,185.02z"/>
						<path class="st23" d="M76.44,190.52c0.45,0.17,0.46,0.19,0.24,0.63c-0.13,0.26-0.26,0.52-0.41,0.82
							c0.21,0.14,0.4,0.28,0.62,0.43c-0.06,0.12-0.11,0.24-0.19,0.4c-0.33-0.2-0.65-0.39-0.96-0.6c-0.04-0.03-0.06-0.16-0.04-0.21
							C75.94,191.51,76.19,191.02,76.44,190.52z"/>
						<path class="st23" d="M58.94,186.55c0.08-0.58,0.15-1.11,0.23-1.64c0.03-0.24,0.18-0.18,0.31-0.18
							c0.15-0.01,0.2,0.08,0.18,0.24c-0.04,0.29-0.08,0.59-0.12,0.88c-0.04,0.22,0.02,0.33,0.22,0.32c0.11-0.01,0.23,0,0.33,0.04
							c0.07,0.03,0.14,0.16,0.13,0.23c-0.01,0.08-0.13,0.21-0.19,0.2C59.67,186.63,59.33,186.59,58.94,186.55z"/>
						<path class="st23" d="M60.92,186.72c-0.5,0.03-0.5,0.03-0.41-0.48c0.06-0.37,0.12-0.74,0.17-1.11
							c0.03-0.24,0.15-0.27,0.32-0.25c0.2,0.02,0.21,0.14,0.17,0.33C61.08,185.71,61,186.21,60.92,186.72z"/>
						<path class="st22" d="M56.65,184.17c-0.2,0.15-0.33,0.25-0.47,0.36C56.19,184.17,56.32,184.07,56.65,184.17z"/>
						<path class="st22" d="M76.68,133.21c-0.07-0.12-0.12-0.22-0.19-0.34c0.07-0.06,0.13-0.1,0.19-0.15
							C76.89,133.03,76.89,133.03,76.68,133.21z"/>
						<path class="st22" d="M66.85,135.79c0.23,0.1,0.23,0.1,0.05,0.48C66.68,136.22,66.68,136.22,66.85,135.79z"/>
						<path class="st22" d="M67.92,135.46c0,0.1,0.04,0.21,0,0.28c-0.04,0.08-0.15,0.11-0.23,0.16c-0.02-0.03-0.04-0.07-0.06-0.1
							c0.06-0.11,0.12-0.22,0.18-0.32C67.84,135.47,67.88,135.47,67.92,135.46z"/>
						<path class="st22" d="M69.87,127.91c-0.1,0.02-0.2,0.05-0.29,0.07c-0.07-0.19-0.13-0.36-0.19-0.53
							C69.6,127.3,69.85,127.52,69.87,127.91z"/>
						<path class="st22" d="M57.88,186.17c-0.04-0.15-0.06-0.23-0.08-0.31c0.1-0.04,0.19-0.11,0.28-0.11c0.05,0,0.09,0.13,0.14,0.2
							C58.13,186.01,58.03,186.07,57.88,186.17z"/>
						<path class="st22" d="M58.24,185.28c-0.09,0.03-0.18,0.08-0.26,0.07c-0.05-0.01-0.08-0.12-0.12-0.18
							c0.08-0.04,0.16-0.11,0.24-0.11c0.06,0,0.11,0.09,0.16,0.14C58.26,185.22,58.25,185.25,58.24,185.28z"/>
						<path class="st22" d="M50.93,185.42c0.12,0.03,0.25,0.06,0.36,0.1c0.01,0-0.01,0.15-0.03,0.17c-0.09,0.05-0.21,0.11-0.28,0.09
							c-0.06-0.02-0.07-0.17-0.11-0.27C50.89,185.47,50.91,185.44,50.93,185.42z"/>
						<path class="st22" d="M65.94,187.33c0.06-0.22,0.1-0.45,0.17-0.66c0.02-0.08,0.1-0.2,0.15-0.2c0.08,0,0.23,0.08,0.22,0.12
							c-0.02,0.24-0.04,0.49-0.13,0.71c-0.04,0.09-0.24,0.1-0.37,0.15C65.97,187.4,65.95,187.37,65.94,187.33z"/>
						<path class="st22" d="M75.42,190.76c-0.09,0.34-0.31,0.56-0.5,0.49c-0.2-0.07-0.26-0.24-0.2-0.48
							c0.09-0.35,0.33-0.57,0.53-0.5C75.42,190.32,75.49,190.51,75.42,190.76z"/>
						<path class="st22" d="M78.07,192.27c-0.04,0.15-0.07,0.29-0.12,0.48c-0.09-0.06-0.16-0.1-0.26-0.16
							c0.13-0.14,0.23-0.25,0.33-0.36C78.03,192.24,78.05,192.26,78.07,192.27z"/>
						<path class="st22" d="M63.94,186.55c-0.12-0.03-0.19-0.05-0.29-0.07c0.07-0.16,0.14-0.3,0.2-0.43c0.02,0,0.04,0,0.07,0.01
							C63.92,186.2,63.93,186.35,63.94,186.55z"/>
						<path class="st22" d="M70.24,188.01c-0.02,0.16-0.04,0.33-0.06,0.54c-0.11-0.05-0.18-0.08-0.28-0.12
							c0.11-0.17,0.2-0.3,0.29-0.43C70.2,188,70.22,188.01,70.24,188.01z"/>
						<path class="st22" d="M54.38,185.02c0.09,0.07,0.18,0.14,0.28,0.21c-0.08,0.09-0.16,0.19-0.25,0.28
							c-0.03-0.02-0.06-0.03-0.09-0.05c0-0.12-0.01-0.23-0.01-0.35C54.33,185.08,54.36,185.05,54.38,185.02z"/>
					</g>
					<text transform="matrix(0.8167 0.2028 -0.241 0.9705 39.7767 202.3885)" class="st22 st24 st25">PASSAPORTE</text>
					<text transform="matrix(0.8167 0.2028 -0.241 0.9705 45.0134 111.2194)" class="st22 st24 st26">REPBLICA DE ANGOLA</text>
				</g>
				
					<ellipse transform="matrix(0.7071 -0.7071 0.7071 0.7071 -55.933 134.4063)" class="st27" cx="134.28" cy="134.72" rx="126.65" ry="126.65"/>
				<circle class="st28" cx="134.28" cy="134.72" r="114.72"/>
			</g>
		</g>
		<g>
			<g class="st29">
				<path class="st19" d="M51.6,130.1c-0.56-36.58,23.21-69.68,58.5-79.83c35.2-10.13,73.57,5.4,92.09,37
					c5.22,8.91,19.42,1.46,14.19-7.46c-21.32-36.37-63.59-55.2-104.8-46.43c-40.62,8.64-70.58,43.55-75.47,84.35
					c-0.47,3.95-0.59,7.93-0.53,11.9C35.74,139.92,51.76,140.47,51.6,130.1L51.6,130.1z"/>
			</g>
			
				<ellipse transform="matrix(0.9999 -0.0166 0.0166 0.9999 -1.8261 3.6746)" class="st30" cx="220.54" cy="111.89" rx="10.56" ry="10.56"/>
		</g>
	</g>
	<path class="st31" d="M294.54,266.49l25.55-42.97c0.88-1.48,0.5-3.38-0.88-4.4l-0.45-0.33c-1.6-1.19-3.88-0.72-4.88,1.01
		l-25.16,43.27c-0.94,1.62-0.37,3.7,1.27,4.61l0.06,0.03C291.62,268.59,293.62,268.05,294.54,266.49z"/>
	<g>
		<path class="st32" d="M246.19,135.54c-0.1,27.57-10.11,54.3-28.32,75.04c-17.98,20.47-43,33.68-69.92,37.5
			c-27.52,3.9-55.93-3.08-78.92-18.5c-22.4-15.02-38.74-38.19-45.9-64.12c-7.43-26.89-4.35-56.21,8.17-81.09
			C43.36,60.4,64.1,41.12,88.85,30.75c25.83-10.82,55.15-11.47,81.55-2.32c25.43,8.81,47.03,27.11,60.56,50.28
			C241.01,95.91,246.12,115.65,246.19,135.54c0.01,3.94,6.12,3.94,6.1,0c-0.1-27.63-9.66-54.23-27.01-75.69
			c-16.94-20.96-41.21-35.61-67.5-41.29c-27.27-5.89-56.11-1.79-80.8,11.08c-23.74,12.37-42.88,33.07-53.72,57.5
			c-11.33,25.53-13.2,54.68-5.58,81.53c7.37,25.94,23.84,48.63,45.63,64.35c22.41,16.17,50.4,23.74,77.9,21.85
			c27.26-1.88,53.18-13.41,73.17-31.95c24.15-22.4,37.79-54.52,37.91-87.37C252.31,131.6,246.2,131.61,246.19,135.54z"/>
	</g>
</g>
</svg>
