<svg id="_x33_0" enable-background="new 0 0 64 64" height="512" viewBox="0 0 64 64" width="512" xmlns="http://www.w3.org/2000/svg"><g fill="#e6edf3"><path d="m20 5c-8.271 0-15 6.729-15 15s6.729 15 15 15 15-6.729 15-15-6.729-15-15-15zm0 28c-7.168 0-13-5.832-13-13s5.832-13 13-13 13 5.832 13 13-5.832 13-13 13z"/><path d="m20 17c-1.654 0-3 1.346-3 3s1.346 3 3 3 3-1.346 3-3-1.346-3-3-3zm0 4c-.552 0-1-.449-1-1s.448-1 1-1 1 .449 1 1-.448 1-1 1z"/><path d="m12 17c-1.654 0-3 1.346-3 3s1.346 3 3 3 3-1.346 3-3-1.346-3-3-3zm0 4c-.552 0-1-.449-1-1s.448-1 1-1 1 .449 1 1-.448 1-1 1z"/><path d="m28 17c-1.654 0-3 1.346-3 3s1.346 3 3 3 3-1.346 3-3-1.346-3-3-3zm0 4c-.552 0-1-.449-1-1s.448-1 1-1 1 .449 1 1-.448 1-1 1z"/><path d="m55 16c0-1.654 1.346-3 3-3s3 1.346 3 3-1.346 3-3 3h-1v5h2v-3.101c2.279-.464 4-2.485 4-4.899 0-2.757-2.243-5-5-5s-5 2.243-5 5v1h2z"/><path d="m57 26h2v2h-2z"/><path d="m48 33c-3.776 0-7.221 1.413-9.861 3.725l-4.037-4.037c2.824-3.135 4.612-7.204 4.847-11.688h12.051v-2h-12.051c-.525-10.011-8.81-18-18.949-18-10.477 0-19 8.523-19 19 0 8.261 5.309 15.288 12.687 17.899l-.362.362c-1.499 1.5-2.325 3.493-2.325 5.613 0 .856.138 1.701.408 2.511l2.571 7.716-1.112 8.899h12.266l-1.08-8.639.81-.81c1.378-1.378 2.137-3.21 2.137-5.159 0-.302-.02-.604-.057-.905l-.566-4.525c1.475-.188 2.623-1.437 2.623-2.962 0-1.092-.593-2.04-1.467-2.565 1.903-.825 3.634-1.963 5.155-3.333l4.037 4.037c-2.312 2.64-3.725 6.085-3.725 9.861 0 8.271 6.729 15 15 15s15-6.729 15-15-6.729-15-15-15zm-28 6c1.023 0 2.02-.104 3-.261v.295c-1.11.163-2.033.973-2.312 2.089l-1.371 5.483c-.1.401-.707.505-.937.162l-.373-.56c-.658-.988-1.007-2.139-1.007-3.328v-4.141c.98.157 1.977.261 3 .261zm-4.867 22 .75-6h6.235l.75 6zm8.316-8.863-.863.863h-6.865l-2.416-7.249c-.202-.605-.305-1.237-.305-1.877 0-1.586.618-3.077 1.739-4.199l.261-.261v3.466c0 1.585.465 3.119 1.344 4.438l.373.56c.469.703 1.253 1.122 2.096 1.122 1.159 0 2.164-.785 2.444-1.909l1.37-5.482c.091-.359.412-.609.781-.609.404 0 .747.302.797.704l.754 6.031c.027.218.041.437.041.657 0 1.415-.551 2.745-1.551 3.745zm2.636-11.154c-.187-.61-.578-1.121-1.085-1.474v-.509h1c.552 0 1 .449 1 1 0 .521-.405.937-.915.983zm-6.085-3.983c-9.374 0-17-7.626-17-17s7.626-17 17-17 17 7.626 17 17-7.626 17-17 17zm36.463 13.877.123.123c.268.267.414.622.414 1s-.146.733-.414 1l-.586.585c-.319.319-.567.691-.736 1.096-1.028-.746-2.211-1.29-3.503-1.562l-.324-.97c.944-.732 1.563-1.864 1.563-3.149v-3.306c0-1.473-1.054-2.717-2.507-2.959l-1.37-.229c-1.23-.204-2.123-1.258-2.123-2.506v-.92c.328-.047.66-.08 1-.08 3.859 0 7 3.14 7 7v1.343c0 1.335.521 2.591 1.463 3.534zm-9.588-7.196c.553.4 1.204.68 1.92.799l1.37.229c.483.08.835.495.835.985v3.306c0 1.103-.897 2-2 2h-2c-1.103 0-2-.897-2-2v-3.764c0-.381.212-.724.553-.894zm.125 9.319h2c.203 0 .398-.031.593-.06l.407 1.221v.596c0 .767-.103 1.517-.284 2.243h-3.432c-.181-.726-.284-1.476-.284-2.243v-.595l.408-1.223c.194.03.389.061.592.061zm1.968 6c-.272.524-.596 1.023-.968 1.492-.373-.469-.697-.967-.968-1.492zm3.008-3.759c1.643.497 3.049 1.568 3.958 3.034-1.636 1.266-3.578 2.149-5.698 2.519 1.058-1.654 1.656-3.556 1.74-5.553zm-6.455-13.12-.863.432c-1.022.511-1.658 1.539-1.658 2.683v3.764c0 1.285.619 2.417 1.563 3.15l-.322.966c-1.286.264-2.473.808-3.507 1.562-.169-.403-.416-.774-.734-1.092l-.586-.586c-.268-.267-.414-.622-.414-1s.146-.733.416-1.001l.119-.12c.944-.944 1.465-2.2 1.465-3.535v-1.344c0-2.785 1.639-5.189 4-6.315v.315c0 .763.188 1.486.521 2.121zm-1.497 13.129c.086 1.994.684 3.892 1.74 5.544-2.12-.37-4.062-1.252-5.698-2.519.901-1.453 2.296-2.518 3.958-3.025zm13.407 1.671c-.114-.168-.228-.336-.352-.495-.043-.138-.079-.28-.079-.426 0-.378.146-.733.414-1l.586-.585c.645-.645 1-1.502 1-2.415s-.355-1.77-.998-2.413l-.123-.123c-.559-.558-.879-1.331-.879-2.121v-1.343c0-4.962-4.037-9-9-9s-9 4.038-9 9v1.343c0 .79-.32 1.563-.881 2.123l-.119.119c-.645.645-1 1.502-1 2.415s.355 1.77 1 2.414l.586.586c.268.267.414.622.414 1 0 .147-.036.288-.08.427-.124.159-.238.326-.352.494-2.205-2.331-3.568-5.466-3.568-8.921 0-7.168 5.832-13 13-13s13 5.832 13 13c0 3.455-1.363 6.59-3.569 8.921z"/></g></svg>
